<?xml version="1.0" standalone="no"?>
<!DOCTYPE svg PUBLIC "-//W3C//DTD SVG 1.1//EN" "http://www.w3.org/Graphics/SVG/1.1/DTD/svg11.dtd" >
<svg xmlns="http://www.w3.org/2000/svg" xmlns:xlink="http://www.w3.org/1999/xlink" version="1.1">
<metadata></metadata>
<defs>
<font id="brasika_displayregular" horiz-adv-x="1804" >
<font-face units-per-em="2048" ascent="1638" descent="-410" />
<missing-glyph horiz-adv-x="520" />
<glyph unicode="&#xfb01;" horiz-adv-x="1356" d="M12 1242h66q-18 72 -13 144.5t23 138.5t57.5 124t91.5 102t125 71t158 32q181 9 257 -74q59 -65 24 -152q-38 -94 -164 -158q-113 -56 -269 -70q11 113 -58 156q-47 28 -82 28q-40 0 -62 -25.5t-16 -73t46 -101.5q99 -139 254 -142h826q-90 -368 -90 -621t90 -621h-526 q86 353 89 597.5t-75 584.5h-174q-79 -340 -76 -584.5t90 -597.5h-526q86 353 89 597.5t-75 584.5h-64zM776 1504q37 38 58 80.5t24.5 95.5t-24.5 106q72 53 186 68q161 18 238 -65q59 -65 38 -155q-22 -94 -120 -151q-67 -39 -156 -49q-168 -20 -244 70z" />
<glyph unicode="&#xfb02;" horiz-adv-x="1318" d="M12 1242h64q-17 72 -12 144.5t23 138.5t58 124t92 102t125 71t158 32q181 9 257 -74q59 -65 24 -152q-38 -94 -164 -158q-113 -56 -269 -70q11 113 -58 156q-47 28 -82 28q-40 0 -62 -25.5t-16 -73t46 -101.5q101 -142 254 -142h364q-8 131 -28 272q110 129 52 266h426 q-90 -368 -90 -890t90 -890h-526q57 235 77.5 551.5t2.5 630.5h-228q-79 -340 -76 -584.5t90 -597.5h-526q86 353 89 597.5t-75 584.5h-64z" />
<glyph unicode="&#xfb03;" horiz-adv-x="2038" d="M12 1242h66q-31 146 9 264t152.5 191.5t282.5 82.5q159 9 221 -66q49 -59 11 -136q-43 -88 -172 -138q-83 -33 -188 -42q7 71 -32 116.5t-86 45.5q-40 0 -55 -35t9 -111q29 -71 87 -121.5t133 -50.5h310q-18 72 -13 144.5t23 138.5t57.5 124t91.5 102t125 71t158 32 q181 9 257 -74q59 -65 24 -152q-38 -94 -164 -158q-113 -56 -269 -70q11 113 -58 156q-47 28 -82 28q-40 0 -62 -25.5t-16 -73t46 -101.5q99 -139 254 -142h826q-90 -368 -90 -621t90 -621h-526q86 353 89 597.5t-75 584.5h-174q-79 -340 -76 -584.5t90 -597.5h-526 q86 353 89 597.5t-75 584.5h-184q-79 -340 -76 -584.5t90 -597.5h-526q86 353 89 597.5t-75 584.5h-64zM1458 1504q37 38 58 80.5t24.5 95.5t-24.5 106q72 53 186 68q161 18 238 -65q59 -65 38 -155q-22 -94 -120 -151q-67 -39 -156 -49q-168 -20 -244 70z" />
<glyph unicode="&#xfb04;" horiz-adv-x="2000" d="M10 1242h68q-31 146 9 264t152.5 191.5t282.5 82.5q159 9 221 -66q49 -59 11 -136q-43 -88 -172 -138q-83 -33 -188 -42q7 71 -32 116.5t-86 45.5q-40 0 -55 -35t9 -111q29 -71 87 -121.5t133 -50.5h310q-18 72 -13 144.5t23 138.5t57.5 124t92 102t126 71t158.5 32 q181 9 257 -74q59 -65 24 -152q-38 -94 -164 -158q-113 -56 -269 -70q11 110 -58 156q-47 28 -84 28q-40 0 -62 -25.5t-16 -73t46 -101.5q105 -142 254 -142h366q-16 183 -28 272q109 127 50 266h426q-90 -368 -90 -890t90 -890h-526q58 237 79 553.5t3 628.5h-230 q-79 -342 -75.5 -584.5t89.5 -597.5h-526q86 355 89.5 597.5t-75.5 584.5h-184q-79 -340 -76 -584.5t90 -597.5h-526q86 353 89 597.5t-75 584.5h-64z" />
<glyph horiz-adv-x="0" />
<glyph horiz-adv-x="0" />
<glyph unicode="&#xd;" horiz-adv-x="666" />
<glyph unicode=" "  horiz-adv-x="520" />
<glyph unicode="&#x09;" horiz-adv-x="520" />
<glyph unicode="&#xa0;" horiz-adv-x="520" />
<glyph unicode="!" horiz-adv-x="672" d="M54 1780h566q-48 -83 -89.5 -230t-69 -330t-23 -402t47.5 -412h-302q43 193 48 412t-22 402t-68 330t-88 230zM122 150q27 77 116 116q44 18 96 24q132 15 191 -56q46 -56 21 -130q-27 -78 -118 -118q-43 -18 -94 -24q-131 -14 -190 57q-47 57 -22 131z" />
<glyph unicode="&#x22;" horiz-adv-x="1180" d="M134.5 1600q-57.5 75 0 160t197.5 100q150 17 201 -73q45 -80 -6 -201q-56 -133 -194 -231q-78 -55 -171 -87l-24 50q102 18 181 97q57 58 52 95q-3 26 -39 24q-140 -9 -197.5 66zM651 1760q57 85 197 100q150 17 201 -73q45 -80 -6 -201q-56 -133 -194 -231 q-78 -55 -171 -87l-24 50q102 18 181 97q57 58 52 95q-3 26 -39 24q-139 -9 -196.5 66t-0.5 160z" />
<glyph unicode="#" horiz-adv-x="1320" d="M46 452l10 60h334l70 364h-330l6 60h336l64 336h60l-66 -336h366l64 336h60l-66 -336h320l-6 -60h-324l-72 -364h320l-8 -60h-322l-62 -318h-60l62 318h-366l-60 -318h-60l62 318h-332zM448 512h366l70 364h-366z" />
<glyph unicode="$" horiz-adv-x="1538" d="M40 0q62 275 84 612q38 -125 96.5 -226.5t122 -167t135.5 -111t137 -65t125 -20.5v658q-32 16 -84 41.5t-62 30.5q-67 32 -116.5 58t-110.5 63t-105 71.5t-88.5 80t-72 92t-44.5 104t-17 119.5q0 113 62 206t163.5 150.5t224 89t250.5 32.5v266h60v-266 q89 -5 236.5 -33.5t203.5 -32.5q95 -7 172 28q-63 -278 -82 -612q-47 154 -110.5 269t-133.5 182t-141 100.5t-145 36.5v-604q37 -16 99 -42.5t102.5 -44t99.5 -45t99 -49.5t89.5 -53t82 -59.5t66.5 -66t54 -76t33 -85t13 -97.5q0 -153 -89 -277.5t-233 -196.5 q-171 -88 -416 -98v-266h-60v264q-106 1 -294.5 33t-233.5 35q-94 7 -172 -28zM507 1480q0 -51 20 -101.5t74.5 -103t138.5 -95.5v572q-42 -9 -83.5 -33.5t-73.5 -61.5t-54 -81.5t-22 -95.5zM800 24q75 12 136.5 54t93.5 103t35.5 130t-40 143.5t-129.5 133.5q-48 33 -96 60 v-624z" />
<glyph unicode="%" horiz-adv-x="2066" d="M85 1373q0 87 26.5 170t75.5 148t128.5 105t178.5 40q98 0 178 -40t128.5 -105t75.5 -148t27 -170t-27 -170t-75.5 -148t-128.5 -105t-178 -40t-178 40t-129 105t-75.5 148t-26.5 170zM327.5 1284q8.5 -91 27.5 -166.5t55 -122.5t82 -47q47 0 83.5 47t55 122.5 t27.5 166.5t0.5 182t-27.5 166.5t-55 122.5t-82 47q-47 0 -83.5 -47t-55 -122.5t-27.5 -166.5t-0.5 -182zM496 0l1012 1842h62q-773 -1408 -1012 -1842h-62zM1164.5 422.5q-0.5 70.5 15.5 137t49.5 125.5t81 103.5t115 71t146.5 26.5q112 0 200.5 -51t134 -133t67 -181 t0 -197.5t-66.5 -180.5t-133 -132.5t-200 -50.5q-79 0 -147 26t-115.5 70t-81.5 103.5t-49.5 126t-16 137zM1406.5 333q8.5 -91 27.5 -166t55 -122t83 -47q46 0 82.5 47t55 122t27.5 166t0.5 182t-27.5 166t-55 122t-83 47q-46 0 -82.5 -47t-55 -122t-27.5 -166t-0.5 -182z " />
<glyph unicode="&#x26;" horiz-adv-x="1724" d="M106 580q0 193 122 328t316 182q-150 46 -221 170q-70 121 -31 254q42 146 199 233q164 89 413 89q96 0 192.5 -25.5t179.5 -72t136 -122.5t54 -168q1 -111 -75.5 -175.5t-182.5 -64.5q-95 0 -170 55t-96 159q65 23 107.5 71t42.5 115q0 76 -56 123t-132 47 q-120 -1 -209 -103q-84 -97 -91 -224q-8 -149 100 -246q129 -115 386 -115v-60q-524 0 -524 -534q0 -71 23 -151t65 -152t109.5 -119t146.5 -48q78 0 137 36t87.5 92.5t32 126.5t-19.5 135.5t-77.5 121.5t-131.5 82q25 126 118 200t220 74q157 0 249.5 -108t92.5 -264 q0 -114 -43 -209t-114.5 -159.5t-166 -109t-195.5 -64.5t-205 -20q-118 0 -231 24.5t-214 75.5t-177.5 123t-121 174.5t-44.5 222.5z" />
<glyph unicode="'" horiz-adv-x="590" d="M106.5 1598.5q-57.5 75.5 0 161t197.5 100.5q150 17 201 -73q45 -80 -6 -201q-56 -133 -194 -231q-78 -55 -171 -87l-24 50q102 16 181 96q56 56 53 94q-3 27 -40 24q-140 -9 -197.5 66.5z" />
<glyph unicode="(" horiz-adv-x="536" d="M64 769q0 221 42 421.5t131 380t215 297.5h60q-93 -118 -158 -297.5t-96 -380t-31 -421.5t31 -421.5t96 -380t158 -297.5h-60q-126 118 -215 297.5t-131 380t-42 421.5z" />
<glyph unicode=")" horiz-adv-x="536" d="M26 -330q93 118 158 297.5t96 380t31 421.5t-31 421.5t-96 380t-158 297.5h60q188 -176 288 -471.5t100 -628.5q0 -147 -21.5 -294t-65.5 -294t-121 -280.5t-180 -229.5h-60z" />
<glyph unicode="*" horiz-adv-x="912" d="M76 1444l88 220q37 -54 106 -106.5t156 -93.5q-13 208 -88 316h236q-75 -111 -88 -316q189 89 262 198l88 -218q-44 8 -72 8q-108 0 -264 -52q158 -138 286 -162l-166 -168q-23 127 -162 286q-136 -156 -162 -284l-166 166q129 27 284 162q-153 52 -266 52q-28 0 -72 -8z " />
<glyph unicode="+" horiz-adv-x="880" d="M6 918v52h404v408h60v-408h404v-52h-404v-408h-58l-2 408h-404z" />
<glyph unicode="," horiz-adv-x="650" d="M129 189.5q57 85.5 197 100.5q103 13 161.5 -30t58.5 -110q0 -132 -81 -238t-211 -172l-28 40q81 42 122 106q34 54 7 71q-11 6 -29 5q-139 -9 -196.5 66.5t-0.5 161z" />
<glyph unicode="-" horiz-adv-x="1156" d="M144 918v52h868v-52h-868z" />
<glyph unicode="." horiz-adv-x="650" d="M113 150q26 77 116 115q44 19 97 25q132 15 191 -56q46 -56 21 -130q-27 -78 -118 -118q-43 -18 -94 -24q-132 -14 -191 57q-48 57 -22 131z" />
<glyph unicode="/" horiz-adv-x="762" d="M52 0l642 1842h64l-642 -1842h-64z" />
<glyph unicode="0" horiz-adv-x="1766" d="M61 890q0 141 31.5 275t99 253t163 208t231 141.5t294.5 52.5q176 0 324 -63.5t243.5 -171.5t162.5 -247.5t81.5 -294t0 -308.5t-81 -293.5t-161.5 -247t-243 -171t-324 -63.5q-159 0 -295 52.5t-231 141.5t-163 208t-100 253t-32 275zM532 331q44 -251 175 -289 q22 -6 45 -6q149 0 276 233q125 230 182 582q58 351 14 604q-44 251 -175 289q-22 6 -45 6q-149 0 -276 -233q-125 -230 -182 -582q-58 -351 -14 -604z" />
<glyph unicode="1" horiz-adv-x="942" d="M40 1436l676 384v-1282q0 -150 18.5 -251t47.5 -158t84 -129h-736q42 54 66 95.5t46 103.5t31 143.5t9 195.5v714q0 63 -40.5 106.5t-93 60.5t-108.5 17z" />
<glyph unicode="2" horiz-adv-x="1632" d="M118 0q0 140 34.5 260.5t93 208.5t134.5 165t160 140t167.5 123t159.5 124t134.5 133t92.5 160t34 196q-1 80 -45.5 138.5t-108.5 85.5t-140 30q-110 3 -192 -44t-82 -130q0 -81 50 -138.5t128 -85.5q-23 -124 -105 -190t-185 -66q-114 0 -198.5 78t-83.5 210 q1 96 59.5 177t153.5 133.5t214.5 82t246.5 29.5q103 0 199 -19t183 -61.5t151.5 -103.5t102.5 -151t38 -199q0 -102 -42 -191t-114 -155.5t-165 -124t-197 -103t-208.5 -87t-200.5 -80.5t-172 -78t-124.5 -87t-56.5 -100q152 0 247.5 1t209.5 4t184.5 9t151 16.5t133 26 t107 37.5t95 51t76.5 67q34 -347 66 -492h-1386z" />
<glyph unicode="3" horiz-adv-x="1620" d="M104 436q-1 72 26 131t73.5 96.5t105.5 58t123 20.5q121 0 216.5 -71t121.5 -203q-83 -29 -136.5 -90t-53.5 -146q0 -97 71 -152.5t169 -55.5q96 0 195 140t127 332q23 156 -28 276t-178 189t-316 69v60q270 -1 398 143q91 103 78 241q-12 125 -101 207q-86 79 -209 79 q-93 0 -153.5 -46t-60.5 -126q0 -70 44.5 -119.5t113.5 -72.5q-21 -111 -96 -169.5t-170 -58.5q-105 0 -181 68.5t-73 185.5q1 99 53.5 177t142.5 125.5t202.5 71.5t241.5 24q324 0 488 -146q117 -103 116 -245q-1 -133 -103 -233q-74 -72 -183 -106q191 -46 313.5 -187.5 t122.5 -332.5q0 -110 -45.5 -209t-122.5 -171t-176 -125.5t-208 -80t-216 -26.5q-101 0 -202.5 18t-196.5 56.5t-168.5 93t-118.5 135t-46 175.5z" />
<glyph unicode="4" horiz-adv-x="1612" d="M18 610l978 1170h346v-1150h234v-92h-234q0 -150 18.5 -250.5t48 -158t85.5 -129.5h-740q56 72 85.5 129.5t48 158t18.5 250.5h-844zM126 630h780v932z" />
<glyph unicode="5" horiz-adv-x="1708" d="M104 436q-1 72 26 131t73.5 96.5t105.5 58t123 20.5q121 0 216.5 -71t121.5 -203q-83 -29 -136.5 -90t-53.5 -146q0 -95 73 -161.5t167 -54.5q74 9 134.5 61.5t98 130t58.5 174t21 190.5t-21.5 181.5t-62.5 146.5q-126 174 -348 174q-221 0 -472 -182l46 888 q205 56 426 56q123 0 251 -19t213 -41t167.5 -41t126.5 -19q80 0 104 64q-2 -35 -7 -68t-17.5 -73.5t-31 -74.5t-50 -67.5t-72 -56.5t-98.5 -37.5t-128 -14.5q-95 0 -205 27.5t-190.5 60.5t-165 60.5t-135.5 27.5q-66 0 -103.5 -50t-44.5 -168l-18 -282q128 123 293 185.5 t337 62.5q137 0 261.5 -40.5t221 -116t154 -193.5t57.5 -262q0 -138 -54.5 -270.5t-152 -237.5t-248.5 -169.5t-329 -64.5q-101 0 -202.5 18t-196.5 56.5t-168.5 93t-118.5 135t-46 175.5z" />
<glyph unicode="6" horiz-adv-x="1824" d="M115 925.5q4 120.5 31 234.5q34 140 103 255t157 192.5t195.5 130.5t217 76.5t221.5 23.5q159 0 293.5 -46t219.5 -134t91 -202q4 -83 -37.5 -146.5t-106.5 -94.5t-140 -31q-100 0 -180 57t-106 167q103 40 143 144q33 88 4 161q-27 67 -89 67q-98 0 -191.5 -108 t-161.5 -272.5t-115 -367.5q79 58 196 89t242 31q140 0 248 -40q108 -41 187 -114t120 -161t48.5 -188.5t-17.5 -197.5t-88 -186t-153.5 -156.5t-222.5 -108t-288 -40.5q-137 0 -256.5 39t-209 106.5t-160 159t-113.5 199.5t-64.5 224.5t-17.5 237zM602 581.5 q-6 -152.5 11.5 -275.5t68 -196.5t128.5 -73.5q92 0 170.5 57.5t127.5 147.5t75 203t22.5 221.5t-40 205.5t-103.5 153q-57 48 -140 48q-76 0 -151 -43.5t-133 -128.5q-30 -166 -36 -318.5z" />
<glyph unicode="7" horiz-adv-x="1416" d="M108 1264q-3 97 14 176.5t48.5 136.5t80 100t104 69.5t126.5 43t141 22.5t154 6q122 0 389 -21t383 -17q-60 -80 -139.5 -176.5t-142 -170.5t-135 -164t-126 -170.5t-106 -176t-84 -195t-51 -212.5t-16.5 -243.5t28 -273.5l-490 2q-77 422 160 802q43 68 93 132.5 t110 124.5t107 105t116.5 100t103.5 81t103.5 76.5t82.5 60.5q-181 -84 -386 -84q-117 0 -284 33t-214 33q-75 0 -117 -44.5t-53 -155.5z" />
<glyph unicode="8" horiz-adv-x="1776" d="M114 454q-1 126 97.5 230.5t254.5 145.5q-84 50 -142.5 108t-97 148t-38.5 200q0 90 32.5 168.5t89 135.5t129.5 102t156 72.5t166 41.5t163 14q104 0 201 -20.5t173.5 -56t135 -85t92 -105.5t37.5 -119.5t-21.5 -125t-91 -123t-166.5 -113.5q85 -38 148.5 -80.5 t118.5 -100.5t84 -135.5t29 -171.5q0 -149 -64 -269t-175.5 -196.5t-257.5 -117.5t-313 -41q-217 0 -386.5 64.5t-261.5 177t-92 252.5zM460 384q1 -98 55.5 -180.5t145.5 -129.5t197 -48q189 0 292.5 85t105.5 219q0 58 -29.5 107t-73 83t-113.5 68t-130 55.5t-145.5 53 t-138.5 53.5q-166 -169 -166 -366zM576 1526q0 -37 9.5 -69.5t31 -60.5t45 -51t62 -45t70.5 -38.5t83 -36t86 -32.5t93.5 -33.5t93.5 -33.5q74 98 104.5 187.5t20.5 155.5t-46 120.5t-93.5 88.5t-123.5 52t-134 18q-127 0 -214.5 -57.5t-87.5 -164.5z" />
<glyph unicode="9" horiz-adv-x="1824" d="M117 1250.5q13 86.5 46.5 169.5t100.5 155.5t153.5 127t207 86t259.5 31.5q137 0 256.5 -38t209.5 -105t161 -157t114.5 -196.5t65.5 -221.5t18 -233t-31 -231q-29 -117 -82 -217.5t-122.5 -173.5t-151.5 -129.5t-173 -91t-183 -51.5t-184 -17q-158 0 -292 45.5 t-219 134.5t-91 204q-4 83 37 146.5t106 94.5t141 31q100 0 180 -57t106 -167q-103 -40 -143 -144q-33 -88 -4 -161q27 -67 89 -67q98 0 191.5 108t161.5 272.5t115 367.5q-79 -57 -196.5 -87.5t-241.5 -30.5q-146 0 -248 38q-97 36 -171.5 97t-116 135.5t-62 160t-7.5 172z M618.5 1132.5q3.5 -108.5 40 -205.5t103.5 -153q57 -48 140 -48q76 0 151 44t133 130q30 165 36 317.5t-11.5 275t-68 196t-128.5 73.5q-93 0 -171.5 -57.5t-127.5 -147.5t-74.5 -203t-22 -221.5z" />
<glyph unicode=":" horiz-adv-x="552" d="M64 150q27 77 116 116q44 18 96 24q132 15 191 -56q46 -56 21 -130q-27 -78 -118 -118q-43 -18 -94 -24q-131 -14 -190 57q-47 57 -22 131zM65 1121q27 77 117 115q42 18 94 24q133 15 191 -57q46 -56 20 -130q-27 -77 -117 -115q-43 -18 -94 -24q-132 -15 -191 57 q-46 56 -20 130z" />
<glyph unicode=";" horiz-adv-x="552" d="M59 1121q27 77 117 115q43 18 96 24q132 15 190 -57q46 -56 20 -130q-27 -77 -116 -115q-43 -18 -94 -24q-133 -15 -192 57q-47 56 -21 130zM74.5 28.5q-57.5 75.5 0 161t197.5 100.5q103 13 160.5 -30t57.5 -110q0 -132 -80.5 -238t-209.5 -172l-28 40q81 42 122 106 q34 54 7 71q-11 6 -29 5q-140 -9 -197.5 66.5z" />
<glyph unicode="&#x3c;" horiz-adv-x="582" d="M10 944l468 468l42 -42l-426 -426l426 -424l-42 -42z" />
<glyph unicode="=" horiz-adv-x="868" d="M0 534v52l868 -2v-50h-868zM0 1302v52h868v-52h-868z" />
<glyph unicode="&#x3e;" horiz-adv-x="584" d="M64 520l426 424l-426 426l42 42l468 -468l-468 -466z" />
<glyph unicode="?" horiz-adv-x="1248" d="M66 1401.5q-41 87.5 24 198.5q69 117 218.5 179.5t323.5 62.5q192 0 332 -70q108 -54 171.5 -143t60.5 -185q-2 -70 -25.5 -126t-61.5 -94.5t-86.5 -69.5t-103.5 -54t-110.5 -44t-108 -43.5t-95.5 -48.5t-75 -63t-44 -83q-13 -49 9 -111.5t94 -143.5t189 -157h-302 q-83 106 -112.5 229t-6.5 238t90 221t169 184q11 9 33 25q36 27 54 41t46 39t39.5 43t25.5 46t14.5 54.5t-5.5 61.5t-23 74q-24 52 -74 85t-108 33q-68 0 -130 -50q-77 -65 -79 -150t81 -150q-147 -116 -270 -116q-113 0 -154 87.5zM414 150q27 77 116 116q44 18 96 24 q132 15 191 -56q46 -56 21 -130q-27 -78 -118 -118q-42 -18 -94 -24q-131 -14 -190 57q-47 57 -22 131z" />
<glyph unicode="@" horiz-adv-x="1710" d="M110 688q0 152 59.5 291.5t160.5 240.5t240.5 160.5t291.5 59.5q153 0 292.5 -59.5t240.5 -160.5t161 -240t60 -292q0 -466 -450 -466q-114 0 -288 34q54 217 62 378q-28 -112 -72 -194t-92 -123t-91.5 -59t-84.5 -16q-127 6 -190 145q-62 135 -39 322q25 198 129 323 q111 134 274 126q102 -6 152 -106q15 -32 24 -32q7 0 10 36l6 70h280q-65 -270 -60 -462q1 -25 0 -55t1 -63t5.5 -64.5t13.5 -60t25 -50.5t40.5 -34.5t58.5 -12.5t71 21t75 62.5t61.5 115t24.5 165.5q0 137 -57.5 265.5t-152 223.5t-224 152t-266.5 57t-265.5 -57 t-223.5 -152t-152 -223.5t-57 -265.5t57 -266.5t152 -224t223.5 -152t265.5 -57.5q181 0 356 96l28 -48q-173 -102 -384 -102q-153 0 -292 59.5t-240 160.5t-160.5 240.5t-59.5 293.5zM630 683q-9 -97 12 -178.5t70 -110.5q21 -12 40 -12q50 0 91.5 78t68.5 224 q25 145 4 268q-26 136 -102 136q-44 0 -86 -61.5t-65.5 -154t-32.5 -189.5z" />
<glyph unicode="A" d="M0 0q115 151 213.5 357.5t284.5 670.5l304 752l350 40q0 -49 56.5 -246t146.5 -458.5t228 -573.5t277 -542h-714q22 75 22 177q0 171 -62 419h-688q-22 -108 -22 -198q0 -84 20 -152q40 -140 174 -246h-590zM432 658h658q-66 240 -165 462.5t-193 341.5l-166 -414 q-97 -243 -134 -390z" />
<glyph unicode="B" horiz-adv-x="1624" d="M60 0q92 410 92 890t-92 890h800q76 0 152 -9.5t160.5 -36t148.5 -68t106 -111.5q41 -68 41 -155q0 -123 -122 -234.5t-312 -167.5h5q93 0 195 -35q105 -36 194.5 -97t148 -152t59.5 -190q0 -79 -29.5 -153.5t-92.5 -142t-152.5 -118t-219.5 -80.5t-284 -30h-798z M536 376q1 -81 19.5 -141t45 -91.5t65 -50t68.5 -23t66 -4.5q108 0 197 84t151 214q46 106 46 194q0 74 -33 135q-72 133 -243 197q-135 51 -296 52q-42 0 -86 -4v-562zM536 998q259 12 405 103.5t155 264.5v17q0 35 -6 71q-8 46 -27 93t-46.5 85t-69.5 61.5t-91 24.5 q-28 0 -65 -17.5t-83.5 -64t-84 -115.5t-63.5 -187q-25 -113 -24 -251v-11v-74z" />
<glyph unicode="C" horiz-adv-x="1670" d="M60 862q0 153 43 296.5t125 262.5t194 208.5t258 139.5t308 51q178 0 274 -32q93 -30 210 -30q74 0 148 16l20 6q-63 -297 -84 -634q-41 296 -153.5 443t-258.5 147q-81 0 -163.5 -43.5t-155 -127.5t-129 -196t-89.5 -259.5t-33 -307.5q0 -167 24 -300.5t65 -220.5 t98 -145t120.5 -83t134.5 -25q171 0 335 126.5t223 297.5q19 -223 66 -452l-20 6q-94 22 -188 22q-60 0 -120 -10q-47 -9 -131 -27.5t-132.5 -25.5t-100.5 -7q-96 0 -232 34q-194 48 -345.5 182.5t-231 314.5t-79.5 373z" />
<glyph unicode="D" horiz-adv-x="1764" d="M60 0q92 410 92 890t-92 890h838q175 0 321 -61.5t239.5 -164.5t158.5 -236.5t78 -281.5q6 -68 6 -135q-1 -81 -9 -161q-16 -148 -82.5 -280.5t-161.5 -235.5t-242 -163.5t-322 -60.5h-824zM536 376q0 -154 54 -232t142 -78q76 0 162 57.5t165 159.5t140 260.5t83 340.5 q15 129 15 239q-1 198 -49 335q-76 213 -216 246q-29 8 -66 8q-125 0 -224 -106.5t-152.5 -283t-53.5 -386.5v-560z" />
<glyph unicode="E" horiz-adv-x="1550" d="M60 0q92 410 92 890t-92 890h1450q-63 -284 -82 -612q-55 183 -180 309.5t-285.5 184.5t-348.5 58q-68 -335 -76 -768q0 -14 8.5 -23t21.5 -9h148q145 0 252 59t220 219q-14 -180 -14 -307t14 -309q-110 158 -219.5 218t-252.5 60h-148q-32 0 -32 -30q0 -380 78 -770 q139 0 265.5 34t235 100.5t190 173.5t123.5 244q19 -328 82 -612h-1450z" />
<glyph unicode="F" horiz-adv-x="1530" d="M60 0q92 410 92 890t-92 890h1450q-63 -284 -82 -612q-55 183 -180 309.5t-285.5 184.5t-348.5 58q-68 -335 -76 -768q0 -14 8.5 -23t21.5 -9h148q145 0 252 59t220 219q-14 -180 -14 -307t14 -309q-110 158 -219.5 218t-252.5 60h-148q-32 0 -32 -30q0 -416 90 -830 h-566z" />
<glyph unicode="G" horiz-adv-x="1748" d="M60 862q0 153 43 296.5t125 262.5t194 208.5t258 139.5t308 51q98 0 153 -7t145 -31q87 -24 188 -24q76 0 146 16l20 6q-63 -297 -84 -634q-41 296 -153.5 443t-258.5 147q-81 0 -163.5 -43.5t-155 -127.5t-129 -196t-89.5 -259.5t-33 -307.5q0 -166 29 -300t76.5 -221 t112 -145.5t131 -83t137.5 -24.5q51 0 96 12q71 149 71 349q0 14 -1 29q-5 218 -90 364h566q-60 -102 -82 -246q-10 -72 -10 -144t10 -144q22 -145 82 -248l-62 24q-75 28 -162 28q-63 0 -124 -16l-98 -30q-48 -16 -78 -23.5t-91 -15t-137 -7.5q-154 0 -294.5 49.5 t-247.5 137t-186 201t-120.5 246t-41.5 268.5z" />
<glyph unicode="H" horiz-adv-x="1756" d="M60 0q92 410 92 890t-92 890h566q-87 -396 -90 -858h686q-3 453 -92 858h566q-90 -410 -90 -890t90 -890h-566q89 391 92 862h-686q3 -467 90 -862h-566z" />
<glyph unicode="I" horiz-adv-x="686" d="M60 0q92 410 92 890t-92 890h566q-90 -410 -90 -890t90 -890h-566z" />
<glyph unicode="J" horiz-adv-x="694" d="M-248 -313q37 94 162 158q67 34 152 53q19 -65 71.5 -110.5t112.5 -64.5t122 -19q53 0 92 14t52 38q10 20 0 45t-44 52.5t-88 53.5t-138.5 51t-187.5 42q92 410 92 890t-92 890h568q-92 -410 -92 -890t92 -890q9 -39 9 -78q0 -64 -25 -124q-40 -98 -124.5 -168.5 t-204 -115.5t-249.5 -52q-20 -1 -38 -1q-150 0 -217 73q-38 41 -38 91q0 30 13 62z" />
<glyph unicode="K" horiz-adv-x="1676" d="M60 0q92 410 92 890t-92 890h566q-46 -210 -70 -441q-21 -205 -20 -373v-42q141 115 242.5 279.5t139.5 317.5q23 93 24 168q0 49 -10 91h552q-68 -57 -271 -256t-371 -372q-150 -155 -150 -164q0 -1 0.5 -0.5t1.5 0.5q29 -8 76 -8q126 0 236 44q104 -265 323 -583 t347 -441h-682q-5 139 -76.5 306t-174 303t-205.5 207q11 -460 88 -816h-566z" />
<glyph unicode="L" horiz-adv-x="1376" d="M60 0q92 410 92 890t-92 890h566q-88 -400 -92 -856v-36q0 -435 80 -828h46q76 0 173 43.5t189.5 115.5t170 177t111.5 216q9 -124 20.5 -219.5t20.5 -150.5t34 -192q2 -11 3 -17t3 -15.5t3 -17.5h-1328z" />
<glyph unicode="M" horiz-adv-x="2098" d="M60 0q92 410 92 890t-92 890h566q67 -254 218 -542t338 -534l442 1076h414q-90 -410 -90 -890t90 -890h-566q71 318 87 692q4 105 4 207q0 263 -29 513l-588 -1412q-25 89 -81.5 233.5t-143 336t-214.5 418t-267 422.5q-20 -176 -26 -386q-1 -37 -1 -73q1 -245 53 -460 q60 -247 204 -491h-410z" />
<glyph unicode="N" horiz-adv-x="1756" d="M60 0q92 410 92 890t-92 890h566q26 -99 114.5 -239.5t201 -275t233.5 -264t216.5 -219.5t146.5 -128q7 111 7 224q0 38 -1 76q-3 205 -76 428.5t-182 397.5h410q-92 -409 -92 -889.5t92 -890.5h-378q-21 74 -125 229.5t-278 375t-322.5 400t-350.5 419.5 q-30 -253 -30 -519v-49q1 -210 74.5 -439t183.5 -417h-410z" />
<glyph unicode="O" horiz-adv-x="1860" d="M60 890q0 191 64.5 362t177 296t276 198.5t352.5 73.5t352.5 -73.5t276 -198.5t177 -296t64.5 -362t-64.5 -362t-177 -296t-276 -198.5t-352.5 -73.5t-352.5 73.5t-276 198.5t-177 296t-64.5 362zM514 597q-2 -44 -2 -85q0 -106 13 -197q18 -126 70.5 -202.5t134.5 -76.5 q101 0 194 68t163 183t121.5 258t79.5 301q36 198 36 355q0 71 -8 133q-24 200 -96 305t-174 105q-67 0 -136 -50t-136 -147.5t-125.5 -259t-96.5 -367.5q-31 -167 -38 -323z" />
<glyph unicode="P" horiz-adv-x="1586" d="M60 0q92 409 92 890v5q0 478 -90 885h712q161 0 297 -33t230 -88.5t160 -129.5q66 -73 95 -157q27 -78 28 -161q0 -6 -1 -11q-2 -88 -35 -171.5t-101 -157.5t-162 -129.5t-226 -88.5t-285 -33h-230q18 -325 82 -620h-566zM538 996q0 -236 2 -304h194q98 0 191.5 63.5 t154 170t78.5 245.5q5 36 5 72q0 106 -39 219q-38 114 -109 183t-179 69q-298 0 -298 -718z" />
<glyph unicode="Q" horiz-adv-x="1860" d="M60 890q0 191 64.5 362t177 296t276 198.5t352.5 73.5t352.5 -73.5t276 -198.5t177 -296t64.5 -362q0 -234 -93.5 -433t-265 -328.5t-391.5 -160.5q-66 -10 -119.5 -23t-89.5 -28t-62 -32t-39 -33.5t-18.5 -34t-3.5 -33t10 -30.5q13 -25 48 -39.5t80 -14.5 q81 0 155.5 47.5t102.5 140.5q190 -45 276 -155q46 -59 46 -116q0 -25 -9 -49q-30 -81 -145 -107q-44 -11 -98 -11q-21 0 -44 2q-179 13 -316 98t-154 190q-2 15 -2 29q0 110 126 201q-216 32 -384 162t-259 327.5t-91 430.5zM514 597q-2 -44 -2 -85q0 -106 13 -197 q18 -126 70.5 -202.5t134.5 -76.5q101 0 194 68t163 183t121.5 258t79.5 301q36 198 36 355q0 70 -8 133q-23 199 -95.5 304.5t-174.5 105.5q-67 0 -136 -50t-136 -147.5t-125.5 -259t-96.5 -367.5q-31 -167 -38 -323z" />
<glyph unicode="R" horiz-adv-x="1642" d="M60 0q92 409 92 890v5q0 478 -90 885h712q398 -1 625 -160q162 -114 191 -274q5 -31 5 -61q0 -124 -89 -235q-129 -162 -396 -228q125 -242 277.5 -477t266.5 -345h-704q2 28 2 59q0 129 -44 303q-55 214 -174 420h-196q1 -195 27 -407t61 -375h-566zM536 854h192 q158 0 265 70t146 188q22 67 22 143q0 59 -13 123q-10 48 -26 93t-42.5 90t-58.5 77.5t-77.5 53t-97.5 20.5q-72 0 -128 -50t-89.5 -130.5t-55 -195t-29.5 -231t-8 -251.5z" />
<glyph unicode="S" horiz-adv-x="1538" d="M40 0q62 275 84 612q39 -126 98 -229t124 -168.5t138 -110.5t138.5 -63.5t125.5 -18.5q70 0 132 27t105 71t64 103q16 46 16 93q0 14 -1 28q-6 62 -48.5 126.5t-119.5 117.5q-36 24 -82.5 51t-74 41t-82.5 41t-63 31q-67 32 -116.5 58t-110.5 63t-105 71.5t-88.5 80 t-72 92t-44.5 104t-17 119.5q0 92 41.5 171.5t111.5 135t162 95.5q93 39 193 58q95 18 192 18h10q107 0 275.5 -31.5t214.5 -34.5q16 -1 31 -1q77 0 141 29q-63 -278 -82 -612q-48 158 -114 275.5t-139 183.5t-146.5 97.5t-148.5 31.5q-45 0 -92.5 -21.5t-86 -59t-66 -85.5 t-29.5 -105v-7q0 -53 22 -106q23 -56 89.5 -113t170.5 -103q37 -16 99.5 -42.5t104 -44t100.5 -45t100 -49.5t91 -53t83.5 -60t68 -67t55 -76.5t33.5 -86t13 -98.5q0 -153 -89 -277.5t-233 -196.5q-197 -100 -464 -100q-108 0 -301.5 32.5t-238.5 35.5q-16 1 -31 1 q-76 0 -141 -29z" />
<glyph unicode="T" horiz-adv-x="1622" d="M0 1780h1622q-39 -173 -58 -327.5t-30 -372.5q-13 58 -23 99.5t-26.5 98.5t-32 98.5t-38 90t-46 83t-55 69t-66.5 55t-78.5 33.5t-92.5 13q-68 -335 -76 -768q0 -29 -1 -58q0 -475 93 -894h-566q96 427 96 897v55q-11 437 -78 768q-61 0 -114 -21t-93 -53.5t-75.5 -85 t-59.5 -103.5t-47.5 -121t-38 -125t-30.5 -127q-11 221 -29.5 373t-56.5 323z" />
<glyph unicode="U" horiz-adv-x="1640" d="M30 1780h566q-48 -221 -69 -450.5t-21 -627.5q0 -159 39.5 -286t105.5 -203t145 -115.5t164 -39.5q94 0 170 42t123 108t78.5 153t44 171.5t12.5 169.5q0 330 -36 550t-96 335.5t-156 192.5h520q-44 -61 -70.5 -121.5t-53 -176.5t-38.5 -308t-12 -472 q0 -122 -19.5 -227.5t-66 -202t-117.5 -164.5t-181 -108t-250 -40q-103 0 -202.5 30.5t-188 92.5t-156 148.5t-106.5 206.5t-39 258q0 391 -20 625.5t-70 458.5z" />
<glyph unicode="V" horiz-adv-x="1818" d="M-22 1780h712q-24 -80 -24 -180q0 -42 4 -90q15 -156 58 -316t102.5 -323t114 -290.5t93 -220t38.5 -110.5l196 482q116 291 152 482q16 87 17 163q0 90 -23 164q-42 136 -172 239h590q-114 -151 -211.5 -356.5t-286.5 -671.5l-302 -752l-352 -40q0 49 -56 246 t-146 458.5t-227.5 573.5t-276.5 542z" />
<glyph unicode="W" horiz-adv-x="2488" d="M-72 1780h712q-20 -84 -20 -182q0 -52 6 -108q16 -162 65 -365t101.5 -373t93 -314t40.5 -188l212 772q1 3 2 8t2 8q15 56 15 123q1 24 -1 50q-8 97 -40 183q-45 119 -89 208t-111 178h734q-29 -96 -32 -224q0 -19 -1 -39q0 -109 15 -219q17 -129 48 -268.5t67.5 -260 t74.5 -230t66.5 -180.5t47.5 -109l128 468q51 186 77 320q27 134 33 250q2 27 1 53q-1 83 -17 149q-22 86 -68 157t-124 133h596q-132 -176 -224.5 -392t-213.5 -658l-200 -730l-380 -40q0 153 -96 487t-222 665q-10 -30 -20 -70l-286 -1042l-386 -40q0 180 -43 395.5 t-108 411.5t-149 395.5t-159.5 349t-146.5 268.5z" />
<glyph unicode="X" d="M-100 0q482 401 818 788q-198 305 -430.5 587.5t-387.5 404.5h826q0 -184 274 -626q175 278 175 469q0 88 -37 157h724q-137 -74 -371.5 -272t-444.5 -430q219 -345 486.5 -679t371.5 -399h-826q0 111 -85.5 300t-230.5 420q-204 -307 -204 -515q0 -118 66 -205h-724z " />
<glyph unicode="Y" horiz-adv-x="1568" d="M-100 1780h712q-2 -28 -2 -57q0 -58 8 -119q12 -92 43.5 -188.5t63 -177t83 -181t83 -158t83.5 -147.5q192 441 192 723q0 188 -86 305h588q-126 -105 -259 -308t-228 -401t-171 -399q6 -179 27 -329t63 -343h-566q27 126 40 193.5t26 166t18 200.5q-33 124 -174 399.5 t-303.5 527t-240.5 293.5z" />
<glyph unicode="Z" horiz-adv-x="1622" d="M0 0q291 392 548.5 851t297.5 631q-30 226 -178 226q-75 0 -172 -59.5t-180 -144.5t-148.5 -177.5t-85.5 -158.5q-13 153 -18 210.5t-22 171t-42 230.5h1622v-2q-232 -322 -466.5 -725.5t-379.5 -752.5q30 -226 178 -226q75 0 172 59.5t180 144t148.5 177t85.5 157.5 q13 -153 18 -210.5t22 -171t42 -230.5h-1622z" />
<glyph unicode="[" horiz-adv-x="480" d="M146 -328v2196h334v-52h-274l2 -2096h272v-48h-334z" />
<glyph unicode="\" horiz-adv-x="722" d="M8 1842h64l642 -1842h-64z" />
<glyph unicode="]" horiz-adv-x="474" d="M0 -278h272v2094h-272v52h334v-2198h-334v52z" />
<glyph unicode="^" horiz-adv-x="730" d="M58 1094l278 686h60l278 -686h-60l-248 612l-248 -612h-60z" />
<glyph unicode="_" horiz-adv-x="1124" d="M128 0h868v-52l-868 2v50z" />
<glyph unicode="`" horiz-adv-x="372" d="M20 1784l44 44l288 -288l-44 -44z" />
<glyph unicode="a" horiz-adv-x="1266" d="M-4 410q18 128 101 230t198 155t237 53q159 0 272 -90q44 91 44 185q0 61 -18 123q-21 71 -68.5 113.5t-93.5 42.5q-33 0 -55 -22t-25 -64q-19 -236 -234 -262q-16 -2 -31 -2q-47 0 -85 16q-50 22 -70 59q-13 24 -13 52q1 17 5 33q12 48 58 88q90 80 208.5 123t239.5 43 q105 0 195 -33.5t158 -98.5t98 -173q18 -64 17 -137q0 -51 -8 -108q-10 -66 -13 -87t-9 -86q-5 -50 -5 -81v-18q2 -34 8 -98t21 -114.5t40.5 -117.5t61.5 -134h-526q-19 67 -19 142q0 19 1 38q-54 -107 -149.5 -164.5t-202.5 -57.5q-75 0 -142 29t-117 83q-51 56 -73 144 q-13 52 -13 110q0 41 7 86zM388 285q9 -76 41.5 -118.5t78.5 -42.5q78 0 148 126t94 372q0 66 -26.5 100t-69.5 34q-70 0 -143.5 -79t-106.5 -211q-18 -77 -19 -139q1 -22 3 -42z" />
<glyph unicode="b" horiz-adv-x="1388" d="M56 0q88 368 88 890t-88 890h526q-60 -236 -80 -555q-11 -170 -10 -339q0 -149 8 -298q13 135 50.5 250t90.5 195.5t118 137.5t132 84t133 27q58 0 104 -20q120 -50 182 -202q42 -104 42 -227q0 -56 -8 -117q-19 -133 -87 -262t-167 -229.5t-234 -162.5t-278 -62h-522z M553 496q-5 -63 -5 -130q0 -148 24 -320h7q77 0 155 82q80 86 136.5 218.5t79.5 277.5q21 133 21 231q1 29 -1 55q-8 112 -39 166t-79 54q-59 0 -121.5 -75.5t-112 -217t-65.5 -341.5z" />
<glyph unicode="c" horiz-adv-x="1188" d="M40 586q1 145 41 264.5t105 198t151 132.5t177 77.5t186 23.5q164 0 291.5 -66t158.5 -174q8 -26 8 -50q0 -70 -62 -130q-62 -59 -184 -76q-18 -2 -34 -2q-44 0 -82 14q-50 20 -73 54q-15 23 -15 51q0 15 4 29q10 46 56 86q21 18 39 60q14 32 14 65q1 10 -1 20 q-6 43 -48 55q-13 3 -27 3q-47 0 -97 -37q-65 -48 -117 -137t-81 -195q-18 -72 -28 -160q-8 -73 -8 -159v-36q2 -106 34.5 -209t93.5 -172q45 -48 97 -72q41 -19 81 -19q10 0 20 1q41 5 61 34q17 25 17 60v11q-3 42 -19 88t-45 87.5t-62 65.5q147 116 270 116q112 0 152 -87 q16 -34 16 -72q0 -59 -38 -127q-67 -113 -183.5 -177.5t-248.5 -64.5q-142 0 -261 51.5t-196.5 138t-120.5 199.5q-42 110 -42 231v6z" />
<glyph unicode="d" horiz-adv-x="1356" d="M38 523q4 74 20 139q28 119 81 227t128 198t179 143.5t222 53.5q138 0 188 -102q-19 341 -82 598h526q-90 -368 -90 -890t90 -890h-526q43 174 64 386q-73 -205 -198 -315.5t-262 -110.5q-83 0 -147 34.5t-101.5 92.5t-61.5 130q-22 72 -28 152q-3 44 -4 86q0 35 2 68z M422 544q-6 -54 -7 -102q0 -76 15 -140q24 -106 86 -132q16 -8 38 -8q91 0 180.5 142.5t119.5 377.5q11 92 11 187q0 111 -15 227q-15 44 -45 70t-67 26q-21 0 -40 -8q-64 -24 -125.5 -127.5t-98 -240t-52.5 -272.5z" />
<glyph unicode="e" horiz-adv-x="1182" d="M40 580q0 195 84 355.5t236.5 253.5t341.5 93q77 0 150.5 -17t139.5 -52t108 -97t46 -144v-16q0 -70 -31 -136q-35 -73 -96 -127.5t-138.5 -99t-161 -73t-161.5 -43.5t-142 -15q5 -84 28.5 -162.5t62.5 -142t100 -99.5q55 -32 119 -32h14q67 4 76 73q2 13 2 27 q0 58 -32 124q-38 82 -94 122q147 116 270 116q112 0 152 -87q16 -34 17 -72q0 -59 -39 -127q-67 -113 -183.5 -177.5t-248.5 -64.5q-141 0 -259.5 50.5t-196.5 136.5t-121 198t-43 235zM414 520q92 5 175.5 68.5t135.5 153t73 186.5q17 91 17 153q0 43 -8 72q-20 71 -77 71 q-70 0 -153 -103t-127 -269q-36 -137 -36 -332z" />
<glyph unicode="f" horiz-adv-x="682" d="M10 1242h68q-14 56 -14 113q0 16 1 31q5 73 23 139t57.5 124t91.5 102t125 71t158 32q18 1 34 1q154 0 223 -75q37 -41 37 -90q0 -30 -13 -62q-38 -94 -164 -158q-113 -56 -269 -70q2 16 2 30q0 89 -60 126q-47 28 -82 28q-40 0 -62 -26q-17 -20 -17 -53q0 -9 1 -19 q6 -48 46 -102q43 -60 105 -93t149 -49h340l-10 -60h-190q-76 -328 -76 -566v-18q3 -245 90 -598h-526q86 353 89 598v18q0 239 -75 566h-64z" />
<glyph unicode="g" horiz-adv-x="1314" d="M-14 142q-2 11 -2 23q0 31 12 63q16 44 50 83.5t96 71t142 45.5q-75 38 -129.5 95t-82.5 120.5t-32 134.5q-1 14 -1 28q0 56 15 110q18 68 62.5 131.5t108.5 113t156 83.5t201 44q-27 30 -32 74q-1 9 -1 18q0 35 15 68q47 102 140 162q92 58 220 58h4q155 -3 211 -80 q22 -31 22 -66q0 -33 -21 -69q-50 -86 -187 -126q-79 -23 -175 -25q3 20 3 37q0 66 -43 95q-32 23 -61 23q-19 0 -36 -9q-34 -18 -34 -57v-8q4 -49 63 -93h4q291 0 454 -151q125 -115 133 -279q1 -11 1 -22q0 -149 -103 -272q-131 -160 -375 -200q-75 -12 -158 -12 q-107 0 -204 22h-25q-111 0 -197 -32q-74 -27 -102 -72q-10 -15 -10 -27q0 -18 23 -27q16 -6 41 -6q40 0 96 14q253 66 438 66q102 0 198 -18q108 -20 188.5 -61t126 -96t65.5 -118q15 -48 15 -100q0 -15 -1 -31q-8 -83 -53 -162.5t-118 -143t-179 -102t-226 -38.5 q-116 0 -209 27.5t-147 72t-79 98.5q-16 35 -16 71q0 20 5 41q14 58 64 106q67 64 194 64q104 0 196 -43t112 -109q-62 -14 -101 -80q-26 -44 -26 -85q0 -21 6 -41q19 -60 99 -60q90 0 150 53t66 129q1 8 1 15q0 53 -30 104q-34 59 -109 103q-159 96 -330 96q-54 0 -124 -10 q-99 -18 -160 -18q-177 0 -248 108q-24 35 -30 78zM453 730q-5 -42 -5 -81q0 -73 18 -133q26 -91 90 -98q5 -1 10 -1q47 0 91 50q49 55 81.5 141.5t52 190.5t20.5 196v8q0 87 -21 151q-21 66 -64 76q-11 2 -21 2q-54 0 -106 -63q-62 -76 -97 -195.5t-49 -243.5z" />
<glyph unicode="h" horiz-adv-x="1400" d="M56 0q88 368 88 890t-88 890h526q-58 -242 -80 -570q-11 -162 -11 -319q0 -162 11 -319q13 140 52 258.5t92.5 200t119 139.5t132 85t130.5 27q82 0 145.5 -44t92.5 -126q22 -59 24 -126q1 -14 0 -28q0 -54 -8 -104q-10 -64 -22.5 -136t-18.5 -152q-3 -42 -4 -85 q-1 -40 3 -80q6 -85 37.5 -189t88.5 -212h-526q-20 73 -20 148q0 20 2 42q7 96 31 218.5t50.5 227t42.5 214.5q9 64 9 116q0 36 -5 66q-7 51 -30.5 77.5t-57.5 26.5q-45 0 -95.5 -46t-98.5 -137.5t-79 -228t-37 -317.5q-1 -25 0 -50q0 -162 30 -357h-526z" />
<glyph unicode="i" horiz-adv-x="674" d="M60 1652q21 94 119 152q67 39 159 50q29 3 55 3q120 0 183 -68q44 -48 44 -109q0 -22 -6 -46q-22 -94 -120 -151q-67 -39 -156 -49q-29 -3 -55 -3q-120 0 -183 68q-45 48 -45 110q0 21 5 43zM68 0q88 368 88 621t-88 621h526q-90 -367 -90 -620.5t90 -621.5h-526z" />
<glyph unicode="j" horiz-adv-x="644" d="M-298 -313q37 94 162 158q67 34 152 53q19 -65 71.5 -110.5t112.5 -64.5t122 -19q53 0 92 14t52 38q5 15 6.5 31.5t-11.5 35.5t-32 38t-54.5 38.5t-79.5 37.5t-107.5 34.5t-137.5 28.5q88 368 88 621t-88 621h526q-61 -249 -79 -436q-9 -91 -9 -183q0 -93 10 -186 q18 -183 78 -437q9 -39 9 -78q0 -64 -25 -124q-40 -98 -124.5 -168.5t-204 -115.5t-249.5 -52q-20 -1 -38 -1q-150 0 -217 73q-38 41 -38 91q0 30 13 62zM42 1652q21 94 119 152q67 39 159 50q29 3 55 3q120 0 183 -68q44 -48 44 -109q0 -22 -6 -46q-22 -94 -120 -151 q-67 -39 -156 -49q-29 -3 -55 -3q-120 0 -183 68q-45 48 -45 110q0 21 5 43z" />
<glyph unicode="k" horiz-adv-x="1336" d="M56 0q88 368 88 890t-88 890h526q-60 -240 -81 -572q-10 -162 -10 -319q0 -164 11 -323q19 144 66.5 265t112 203.5t135 137t146.5 82.5q54 22 118 28q29 3 55 3q120 0 178 -68q37 -44 37 -98q0 -27 -9 -57q-28 -94 -130 -151q-70 -39 -159 -49q-21 -2 -40 -2 q-77 0 -121 38q-36 32 -36 75q0 21 9 45q12 32 12 49q0 21 -18 21q-14 0 -30 -8q-62 -30 -121 -113t-99 -209q149 7 300 46q81 -203 212 -452.5t238 -351.5h-526q-13 92 -84 262.5t-172 359.5q-23 -126 -23 -271q0 -163 29 -351h-526z" />
<glyph unicode="l" horiz-adv-x="636" d="M56 0q88 368 88 890t-88 890h526q-90 -368 -90 -890t90 -890h-526z" />
<glyph unicode="m" horiz-adv-x="1962" d="M56 0q88 368 88 621t-88 621h526q-63 -258 -81 -442q-8 -85 -8 -174q0 -105 11 -216q1 172 30.5 318t77 246t109.5 171t126 104t127 33q72 0 129.5 -44t86.5 -126q26 -73 27 -164q0 -27 -3 -56q67 189 176.5 289.5t221.5 100.5q71 0 128 -44t86 -126q21 -59 24 -126 q1 -16 1 -32q1 -50 -7 -100q-10 -64 -22.5 -136t-18.5 -152q-3 -42 -4 -85q-1 -40 3 -80q6 -85 37.5 -189t88.5 -212h-528q-19 73 -19 147q0 21 2 43q7 96 31.5 218.5t51 227t40.5 214.5q8 63 9 113q0 38 -5 69q-15 96 -66 96q-35 0 -75 -48.5t-78.5 -142t-64 -230.5 t-30.5 -314q-1 -30 -1 -60q0 -153 21 -333h-450q-20 73 -20 148q0 20 2 42q7 96 31 218.5t50.5 227t42.5 214.5q9 64 9 116q0 36 -5 66q-15 96 -66 96q-35 0 -75 -48.5t-78.5 -142.5t-64 -231t-30.5 -314q-1 -30 -1 -60q0 -153 21 -332h-526z" />
<glyph unicode="n" horiz-adv-x="1400" d="M56 0q88 368 88 621t-88 621h526q-58 -234 -78 -410q-13 -107 -13 -215q0 -68 5 -137q7 158 43.5 292.5t90.5 226.5t122 157t138 95.5t138 30.5q81 0 144 -44t92 -126q22 -59 24 -126q1 -14 0 -28q0 -54 -8 -104q-10 -64 -22.5 -136t-18.5 -152q-3 -42 -4 -85 q-1 -40 3 -80q6 -85 37.5 -189t88.5 -212h-526q-20 73 -20 148q0 20 2 42q7 96 31 218.5t50.5 227t42.5 214.5q9 64 9 116q0 36 -5 66q-7 48 -29 73t-53 25q-44 0 -95.5 -47.5t-100 -140.5t-80.5 -230t-38 -315q-1 -24 0 -49q0 -159 30 -348h-526z" />
<glyph unicode="o" horiz-adv-x="1256" d="M40 620q0 140 38.5 259.5t111.5 208.5t185 139.5t251 50.5t252 -50.5t186 -139t112.5 -208.5t39.5 -260t-39.5 -260t-112.5 -209.5t-186 -140t-252 -50.5t-251 50.5t-185 140t-111.5 209.5t-38.5 260zM396 535q-12 -101 -12 -183q0 -134 32 -221q37 -98 108 -98q7 0 14 1 q108 13 197 216q87 203 115 478q9 91 9 166q0 145 -34 230q-31 79 -88 79q-5 0 -9 -1q-111 -13 -204 -205q-95 -194 -128 -462z" />
<glyph unicode="p" horiz-adv-x="1356" d="M56 -538q90 368 90 890.5t-90 889.5h526q-41 -167 -66 -386q74 205 199.5 315.5t262.5 110.5q83 0 147 -34.5t101.5 -92.5t61 -130t28.5 -151q4 -44 4 -86q0 -34 -2 -68q-5 -73 -20 -138q-28 -120 -81 -228.5t-128 -198.5t-179 -143.5t-222 -53.5q-141 0 -188 102 q19 -341 82 -598h-526zM502 560q-11 -92 -11 -187q0 -111 15 -227q15 -44 45 -70t67 -26q21 0 40 8q64 25 125.5 128.5t98.5 240t52 272.5q7 53 7 102q0 75 -15 139q-24 106 -86 132q-16 8 -38 8q-91 0 -180.5 -142.5t-119.5 -377.5z" />
<glyph unicode="q" horiz-adv-x="1388" d="M44 526q19 133 87 262t167 229.5t234 162.5t278 62h524q-90 -368 -90 -890.5t90 -889.5h-526q57 237 78 556q10 170 10 340q0 149 -8 298q-13 -135 -50.5 -250.5t-90.5 -196t-117.5 -138t-131.5 -84.5t-132 -27q-58 0 -104 20q-122 50 -184 201q-43 104 -43 228 q0 57 9 117zM418 332q9 -113 39.5 -166.5t78.5 -53.5q59 0 121.5 75.5t112 216.5t65.5 342q5 62 5 130q0 148 -24 320h-7q-79 0 -155 -82q-81 -86 -137 -218.5t-79 -277.5q-21 -133 -21 -231q0 -29 1 -55z" />
<glyph unicode="r" horiz-adv-x="1206" d="M56 0q88 368 88 621t-88 621h526q-58 -228 -78 -400q-13 -108 -12 -216q0 -63 4 -126q6 113 23.5 215t53 202.5t86.5 176t128 126.5t173 62q29 3 55 3q75 1 127 -27q70 -38 92 -104q7 -27 7 -56q-1 -8 -1 -16q-2 -36 -24 -72.5t-55 -66.5t-85.5 -51.5t-115.5 -29.5 q-21 -2 -39 -2q-74 0 -121 38q-43 35 -43 82q0 16 5 34q11 32 8 53t-18 21q-11 0 -28 -14q-65 -62 -115 -228q-49 -166 -63 -368q-4 -60 -5 -120q0 -143 23 -286l18 -72h-526z" />
<glyph unicode="s" horiz-adv-x="1214" d="M52 401q40 87 152 87q123 0 270 -116q-80 -62 -80 -145q0 -88 80 -153q62 -50 130 -50q49 0 93.5 24t70.5 64t32 88l2 18q0 40 -24 84q-29 54 -92 96q-53 37 -178.5 97t-163.5 81q-91 51 -151 120q-61 70 -79 144q-10 39 -9 78q0 35 8 70q17 73 81.5 136.5t167.5 103.5 q153 58 330 58q109 0 200 -22t153.5 -68.5t72.5 -111.5q2 -14 2 -27q0 -67 -53 -123q-64 -68 -187 -82q-18 -2 -35 -2q-33 0 -63 8q-44 12 -69 36t-35 55q-4 12 -3 25q1 20 9 42q14 36 52 68q17 14 24.5 32t3 36.5t-19.5 34.5t-45.5 26t-72.5 11q-22 0 -53.5 -19t-61.5 -49 t-49 -70q-21 -44 -21 -82q-1 -36 27 -72q30 -38 92 -64q36 -15 94 -36t103.5 -37t102 -40.5t99.5 -48t86 -58.5t70.5 -74t45 -92t17.5 -114q0 -108 -63 -197t-165 -141q-140 -70 -332 -70q-175 0 -325 62t-219 180q-38 68 -38 127q0 38 16 72z" />
<glyph unicode="t" horiz-adv-x="832" d="M-18 1182l14 60q33 0 70.5 3.5t89.5 14.5t101.5 28t102.5 47t96.5 69t80 97t55.5 127h60q-46 -191 -68 -386h192l10 -60h-208q-11 -127 -11 -249q0 -192 27 -371q-70 -11 -161.5 -56.5t-169.5 -113.5q-79 -68 -103 -148q-7 -22 -6 -44q0 -58 46 -116q27 -33 65.5 -51.5 t76.5 -18.5t68 18q52 32 60 99q2 15 1 29q1 54 -23 108q-30 70 -86 110q147 116 270 116q73 0 118 -42q46 -40 48 -104q0 -4 1 -8q0 -61 -39 -132q-47 -81 -118 -139t-145.5 -85.5t-148.5 -27.5q-99 0 -169 47q-71 47 -97 141q-10 34 -9 75q0 70 29 159q75 230 75 456 q0 27 -1 54q-6 145 -54 210.5t-140 83.5z" />
<glyph unicode="u" horiz-adv-x="1378" d="M16 1242h526q20 -73 19 -148q0 -20 -1 -42q-7 -96 -31.5 -218.5t-51 -227t-41.5 -214.5q-9 -63 -9 -114q0 -37 5 -68q9 -63 45 -100.5t85 -37.5q35 0 70 19t70 63t63.5 107.5t48.5 159.5q20 97 27 213q3 47 3 99q0 80 -6 174q-10 157 -40 335h526q-90 -368 -90 -621 t90 -621h-526q44 176 70 348q-25 -97 -69 -169.5t-92.5 -113.5t-110.5 -65.5t-114 -32t-112 -7.5q-86 0 -156 46t-98 124q-21 59 -24 126q-1 16 -1 32q-1 50 7 100q10 64 23 136t19 152q3 44 3 89q0 38 -2 76q-5 85 -36.5 189t-88.5 212z" />
<glyph unicode="v" horiz-adv-x="1200" d="M-128 1242h528q2 -105 76 -341.5t174.5 -459.5t167.5 -285q-18 107 -19 207v17q-1 88 9 154q10 72 21 155t17 157q2 24 1 52q1 57 -7 126q-12 103 -44 218h470q-84 -99 -157.5 -213t-135.5 -251q-63 -138 -93 -270q-21 -90 -20 -182q0 -42 4 -84q14 -136 82 -244l-564 2 q0 131 -89.5 383.5t-208 491t-212.5 367.5z" />
<glyph unicode="w" horiz-adv-x="1736" d="M-108 1242h480q1 -118 92 -395t194 -487q1 71 17.5 157t35.5 152.5t35.5 148t16.5 144t-21 140.5q-19 68 -74 140h480q3 -119 94 -397t194 -485q1 81 16 169.5t30 159.5t25 153q5 44 5 93q0 41 -4 89q-8 102 -40 218h392q-68 -81 -128 -175t-112.5 -202t-82.5 -221.5 t-37 -224.5q-1 -21 -1 -41q1 -90 25 -180q30 -110 98 -200l-526 2q0 132 -73 391t-175 501q-57 -114 -90 -228q-34 -113 -42 -230q-2 -24 -1 -48q-1 -92 25 -182q32 -113 106 -206l-526 2q0 131 -68 378.5t-169.5 493.5t-190.5 370z" />
<glyph unicode="x" horiz-adv-x="1180" d="M-4 1242h554q3 -124 154 -420q26 36 46 71t33.5 61t22.5 59t14 49.5t7.5 49.5t3 43t0 45.5t-0.5 41.5h352q-297 -280 -452 -468q125 -233 286 -470.5t232 -305.5l-564 2q0 148 -184 474q-65 -97 -106.5 -232.5t-41.5 -241.5h-352q91 88 235.5 245t238.5 275 q-171 293 -478 722z" />
<glyph unicode="y" horiz-adv-x="1246" d="M-26 1242h526q25 -76 25 -192q0 -25 -1 -52q-7 -150 -29 -279t-37 -275q-8 -79 -8 -140q0 -54 6 -94q9 -54 40 -83t76 -29q40 0 83 24t84.5 76t73 125t47.5 182q10 75 10 158q0 38 -2 77q-9 161 -43 292.5t-87 209.5h526q-66 -78 -102 -202.5t-47 -268.5t-16 -288 t-21 -301t-50 -268q-134 -427 -622 -452q-20 -1 -38 -1q-152 0 -220 74q-37 40 -37 90q0 29 13 62q38 94 164 158q113 57 270 71q-2 -16 -2 -30q0 -90 60 -128q52 -32 112 -32q78 0 146 51t90 129q22 66 22 146q0 18 -1 36q-6 102 -28 190.5t-55 163.5 q-16 -112 -60.5 -203.5t-106 -150t-133 -91.5t-144.5 -37q-10 -1 -20 -1q-61 0 -116 22q-64 25 -113.5 76t-76.5 136q-21 69 -21 153q0 18 1 38q1 27 7 112.5t7 127.5v16q0 41 -4 113q-5 86 -20 151t-47 156t-81 182z" />
<glyph unicode="z" horiz-adv-x="1178" d="M50 0q-14 37 -14 81q0 49 17 105q32 108 102 212t159.5 215t170.5 199t139.5 161.5t63.5 102.5q0 53 -66.5 100.5t-149.5 47.5q-52 -1 -75.5 -16t-19.5 -37.5t19 -45t38 -41.5q38 -32 52 -68q9 -22 9 -42q1 -13 -3 -25q-10 -31 -35 -55t-69 -36q-29 -8 -63 -8 q-17 0 -35 2q-123 14 -187 82q-53 57 -53 123q0 13 2 27q15 95 101 147.5t221 52.5q23 0 170.5 -21t305.5 -21h262q-98 -115 -193 -238t-198.5 -274t-183.5 -307.5t-115 -286.5q17 -46 96.5 -72t159.5 -26q51 0 72 12q52 32 61 99q2 15 2 30q0 53 -24 107q-31 70 -87 110 q145 114 272 114q61 0 103 -28q41 -29 57 -76q7 -21 7 -45q0 -31 -11 -68q-20 -66 -76 -135q-151 -184 -624 -184q-183 0 -380 26z" />
<glyph unicode="{" horiz-adv-x="486" d="M46 774q44 60 68.5 145.5t29 171.5t7.5 181t3 180t16.5 162.5t46.5 133.5t94.5 89t160.5 33v-52q-95 0 -142.5 -41t-55 -112t1 -159.5t14.5 -190.5t-2.5 -197.5t-61 -187.5t-152.5 -154q100 -62 152.5 -155t61 -189t2.5 -198.5t-14.5 -191.5t-1 -160t55 -112.5 t142.5 -41.5v-52q-109 0 -177 42t-96 115.5t-38 165t-10 199t-3.5 207.5t-27.5 200.5t-74 168.5z" />
<glyph unicode="|" horiz-adv-x="306" d="M124 -480v2650h60v-2650h-60z" />
<glyph unicode="}" horiz-adv-x="488" d="M14 -272q95 0 142.5 41.5t55 112.5t-1 160t-14.5 191.5t2.5 198.5t61 189t152.5 155q-100 62 -152.5 154t-61 187.5t-2.5 197.5t14.5 190.5t1 159.5t-55 112t-142.5 41v52q96 0 160.5 -33t94.5 -89t46.5 -133.5t16.5 -162.5t3 -180t7.5 -181t29 -171.5t68.5 -145.5 q-50 -68 -74 -168.5t-27.5 -200.5t-3.5 -207.5t-10 -199t-38 -165t-96 -115.5t-177 -42v52z" />
<glyph unicode="~" horiz-adv-x="978" d="M126 552q0 312 224 312q89 0 186 -116l8 -8q64 -72 87 -89q28 -21 51 -21q106 0 104 224v5.5v4.5h66q0 -312 -224 -312q-52 0 -96 31.5t-90 84.5l-8 8q-34 39 -50 56.5t-41.5 35.5t-46.5 18q-25 0 -44 -11t-30 -33.5t-17.5 -42t-9 -51t-3 -45.5t-0.5 -40v-11h-66z" />
<glyph unicode="&#xa1;" horiz-adv-x="672" d="M48 0q48 83 89.5 230t69 330.5t23 402.5t-47.5 413h302q-43 -194 -48 -413t22 -402.5t68 -330.5t88 -230h-566zM122 1676q27 78 118 118q43 18 94 24q131 14 190 -57q47 -56 22 -130q-27 -78 -118 -117q-43 -18 -94 -24q-132 -15 -191 56q-46 56 -21 130z" />
<glyph unicode="&#xa2;" horiz-adv-x="1188" d="M40 586q1 129 32.5 237.5t83.5 184.5t123.5 133t149 88.5t163.5 44.5v232h60v-226q116 8 221 -19t180 -84.5t97 -134.5q29 -100 -54 -180q-62 -59 -184 -76q-66 -7 -116.5 12t-72.5 53.5t-11.5 80t56.5 86.5q21 19 39 60.5t12.5 84.5t-47.5 55q-59 14 -124 -34t-117 -137 t-81 -195q-19 -72 -28.5 -160.5t-7.5 -194.5t34.5 -209t93.5 -172q45 -49 97 -72.5t101 -17.5q41 5 61 34t17 71t-19 88t-45 87.5t-62 65.5q147 116 270 116q112 0 152.5 -87t-22.5 -199q-67 -113 -183.5 -177.5t-248.5 -64.5h-8v-234h-60v238q-170 16 -297.5 106 t-191.5 224.5t-63 291.5z" />
<glyph unicode="&#xa3;" horiz-adv-x="1376" d="M54 0v66q31 9 54 32.5t36 61t21.5 71t12 81t4 71.5t0.5 61v428h-128v66h128v174q0 196 42.5 339.5t121 227t179 122.5t227.5 39q135 0 260.5 -41t207.5 -109q-8 -50 -23 -95.5t-42.5 -96t-47.5 -82.5t-64 -97.5t-65 -98.5q16 129 -19 259.5t-101.5 211.5t-137.5 81 q-81 0 -118.5 -80.5t-37.5 -245.5v-508h510v-66h-510v-146q0 -534 -220 -632q-23 -10 -30 -16t1.5 -9t32.5 -3h508q64 -2 122 25t104 74.5t87 119t73 150.5t62 177q9 -124 20.5 -219.5t20.5 -150.5t34 -192q2 -11 3 -17t3 -15.5t3 -17.5h-1334z" />
<glyph unicode="&#xa4;" horiz-adv-x="970" d="M118 396l94 96q-64 90 -64 200t64 196l-94 94l74 76l96 -94q85 64 198 64t198 -64l94 94l74 -76l-92 -92q64 -90 64 -198q0 -115 -66 -200l94 -96l-74 -74l-96 96q-86 -64 -196 -64q-105 0 -198 64l-94 -96zM258 690q0 -93 67 -159.5t161 -66.5q93 0 159.5 66.5 t66.5 159.5q0 94 -66.5 161t-159.5 67q-94 0 -161 -67t-67 -161z" />
<glyph unicode="&#xa5;" horiz-adv-x="1568" d="M-100 1780h686q11 -72 29.5 -144.5t47.5 -147.5t50.5 -129t61 -131t55.5 -108t58 -106t46 -82l22 -42h50l36 76q51 110 77.5 195t37 184t-8.5 204.5t-68 230.5h588q-68 -38 -136.5 -107t-122.5 -145t-115 -184.5t-102 -193t-96 -202.5l-28 -58h422v-52h-446l-34 -76 q0 -66 4 -178h476v-50h-472q15 -226 82 -534h-566q68 302 84 534h-516v52h518q2 26 2 84l-62 116q-6 9 -15.5 27.5t-12.5 24.5h-430v52h400q-108 193 -208.5 360.5t-218 333t-175.5 196.5z" />
<glyph unicode="&#xa6;" horiz-adv-x="306" d="M124 -480v1152h60v-1152h-60zM124 1020v1150h60v-1150h-60z" />
<glyph unicode="&#xa7;" horiz-adv-x="1076" d="M120.5 270q28.5 60 105.5 60q85 0 188 -80q-44 -32 -57 -72t1 -73.5t46 -59.5t72 -33q73 -13 127.5 34t40.5 112q-8 35 -43.5 66.5t-84.5 57t-107 51.5t-111.5 56.5t-95 66t-61.5 85.5t-9 109q17 90 115.5 149t230.5 77q-146 68 -196 101q-141 94 -126 219q0 8 2 16 q14 75 89 129.5t171 78.5t198 24q108 0 184 -38q69 -34 99.5 -90.5t21.5 -107t-53.5 -87.5t-111.5 -37q-62 0 -109 47t-47 109q0 50 23 87.5t63 54.5q-48 12 -88 12q-91 0 -142 -36.5t-32 -95.5q14 -42 61 -77.5t106.5 -58.5t126.5 -52.5t122.5 -60t91.5 -81.5t36 -116 q0 -72 -48 -131.5t-122 -96t-166 -54.5q49 -19 76.5 -30.5t69.5 -32t66.5 -40.5t49.5 -47t36.5 -60t11.5 -72q0 -51 -23 -95.5t-61.5 -76t-86.5 -55.5t-101.5 -38t-103.5 -21t-94 -6q-104 2 -197.5 49t-138.5 123q-44 78 -15.5 138zM398 698q21 -62 134 -120q71 14 110.5 51 t29.5 93q-10 54 -108 108q-86 0 -136 -37.5t-30 -94.5z" />
<glyph unicode="&#xa8;" horiz-adv-x="864" d="M126 1648q0 55 38.5 93.5t91.5 38.5q56 0 95 -38.5t39 -93.5q0 -54 -39 -92t-95 -38q-53 0 -91.5 38t-38.5 92zM476 1648q0 55 38.5 93.5t91.5 38.5q56 0 94 -38t38 -94q0 -54 -38.5 -92t-93.5 -38q-53 0 -91.5 38t-38.5 92z" />
<glyph unicode="&#xa9;" horiz-adv-x="1698" d="M110 900q0 151 58.5 288.5t157 237t235.5 158t287 58.5q202 0 372.5 -99.5t270 -270t99.5 -372.5q0 -150 -58.5 -287t-158 -235.5t-237 -157t-288.5 -58.5q-150 0 -287 58.5t-235.5 157t-157 235.5t-58.5 287zM186 902q0 -135 52.5 -257.5t141 -211t211 -141t257.5 -52.5 t258 52.5t212 141t141.5 211t52.5 257.5t-52.5 257.5t-141.5 211t-212 141t-258 52.5t-257.5 -52.5t-211 -141t-141 -211t-52.5 -257.5zM432 926q0 204 132.5 336t331.5 132q49 0 98 -8t98 -26t85.5 -52.5t50.5 -81.5q20 -73 -38 -128q-46 -44 -130 -52q-46 -6 -82 7.5 t-51.5 37.5t-8.5 56.5t40 62.5q35 31 54 79t-20 61q-66 9 -122 -30t-92 -107.5t-58 -142t-30 -146.5q-11 -112 3.5 -198t48 -133.5t74.5 -71t86 -23.5q60 0 106.5 38.5t49.5 95.5q3 33 -15.5 63t-50.5 49q33 63 74.5 95.5t79.5 32.5q46 0 65.5 -43t-3.5 -123 q-37 -121 -130.5 -184.5t-209.5 -63.5q-81 0 -158 31t-140 88t-101 148t-37 201z" />
<glyph unicode="&#xaa;" horiz-adv-x="636" d="M-4 1378q13 98 95 161t179 63q75 0 136 -46q38 75 14 156q-11 37 -35.5 57.5t-48.5 20.5q-37 0 -40 -42q-9 -122 -118 -134q-69 -7 -93.5 37.5t23.5 88.5q46 40 106.5 62t121.5 22q115 0 185 -72.5t49 -207.5q-9 -53 -11.5 -80t-1.5 -79t17.5 -104t47.5 -111h-266 q-13 43 -10 92q-26 -55 -75 -84.5t-103 -29.5q-82 0 -135 61.5t-37 168.5zM203 1281q16 -47 53 -47q39 0 74 63.5t48 188.5q0 33 -13 50.5t-35 17.5q-35 0 -72 -39.5t-54 -106.5q-17 -80 -1 -127z" />
<glyph unicode="&#xab;" horiz-adv-x="700" d="M76 420l42 42l368 -368l-42 -42zM174 518l468 468l42 -42l-426 -424l426 -426l-42 -42z" />
<glyph unicode="&#xac;" horiz-adv-x="1100" d="M0 1036l4 52h946v-334h-60v282h-890z" />
<glyph unicode="&#xad;" horiz-adv-x="1156" d="M144 918v52h868v-52h-868z" />
<glyph unicode="&#xae;" horiz-adv-x="1700" d="M112 900q0 151 58.5 288.5t157 237t235.5 158t287 58.5t287 -58.5t236.5 -158t158 -237t58.5 -288.5q0 -150 -58.5 -287t-158 -235.5t-236.5 -157t-287 -58.5t-287 58.5t-235.5 157t-157 235.5t-58.5 287zM188 902q0 -135 52.5 -257.5t141 -211t211 -141t257.5 -52.5 q179 0 331.5 88.5t241.5 241t89 332.5t-89 332.5t-241.5 241t-331.5 88.5q-135 0 -257.5 -52.5t-211 -141t-141 -211t-52.5 -257.5zM500 478q45 205 45 447t-45 449h360q231 -1 344 -106q82 -76 65.5 -173t-124.5 -159q-51 -30 -117 -46q62 -121 139 -239t135 -173h-354 q6 75 -21.5 182t-88.5 212h-98q3 -196 44 -394h-284zM740 908h96q120 0 176.5 74.5t33.5 189.5q-3 17 -10 42q-38 103 -110 122q-54 14 -92.5 -17.5t-58 -98.5t-27.5 -142.5t-8 -169.5z" />
<glyph unicode="&#xaf;" horiz-adv-x="680" d="M140 1618v60h400v-60h-400z" />
<glyph unicode="&#xb0;" horiz-adv-x="892" d="M110 1486q0 140 98 238t238 98t238 -98t98 -238q0 -138 -98.5 -237t-237.5 -99t-237.5 99t-98.5 237zM196 1486q0 -104 73 -177t177 -73t177 73t73 177t-73 177t-177 73t-177 -73t-73 -177z" />
<glyph unicode="&#xb1;" horiz-adv-x="884" d="M8 456v52l868 -2v-50h-868zM8 1012v52l404 -2v408h60v-408h404v-50h-404v-410h-58v410h-406z" />
<glyph unicode="&#xb2;" horiz-adv-x="806" d="M116 1160q0 66 22.5 120.5t59 91t80 68.5t87 60.5t80 58.5t59 71t22.5 90q0 44 -31.5 68t-76.5 24q-43 0 -75.5 -21t-32.5 -57q0 -61 72 -88q-10 -48 -45.5 -74t-80.5 -26q-50 0 -86.5 30.5t-35.5 81.5q1 58 44 99.5t102.5 60t125.5 18.5q71 0 133 -19.5t106.5 -66 t44.5 -112.5q0 -73 -53.5 -129t-131 -87.5t-154.5 -54t-133.5 -42.5t-59.5 -39q223 0 323.5 13.5t158.5 64.5q2 -14 6.5 -60t9 -83t8.5 -61h-548z" />
<glyph unicode="&#xb3;" horiz-adv-x="770" d="M108 1322q-1 52 35 83t85 31q45 0 80.5 -26t45.5 -76q-30 -10 -50 -33t-20 -55q0 -36 26.5 -56t63.5 -20q34 0 71 51.5t47 122.5q14 89 -37 143.5t-157 54.5v22q136 0 181 80q31 57 3 115q-32 53 -84 57q-40 0 -77.5 -19.5t-66.5 -52.5t-48.5 -63.5t-35.5 -64.5 q-2 14 -6 60.5t-8.5 83t-9.5 60.5h44q18 0 96 9t112 9q99 0 163.5 -36t64.5 -102q0 -45 -31.5 -81t-92.5 -55q71 -17 116.5 -69.5t45.5 -122.5q0 -67 -44.5 -120t-108.5 -79.5t-131 -26.5q-66 0 -126 17.5t-103 59t-43 99.5z" />
<glyph unicode="&#xb4;" horiz-adv-x="358" d="M18 1546l280 280l42 -42l-280 -280z" />
<glyph unicode="&#xb6;" horiz-adv-x="1246" d="M63 1091q-26 226 60 410q88 188 262 251q78 28 167 28h210l-2 -1948h-208q65 292 84 686h-4q-252 0 -411 188q-131 155 -158 385zM822 -168l2 1948h294q-90 -410 -90 -974t90 -974h-296z" />
<glyph unicode="&#xb7;" horiz-adv-x="650" d="M113 1019q27 77 117 116q44 19 96 25q133 14 192 -58q45 -57 19 -130q-28 -78 -120 -117q-41 -17 -91 -23q-132 -14 -191 57q-48 56 -22 130z" />
<glyph unicode="&#xb8;" horiz-adv-x="618" d="M64 -304q11 56 79 97t133 41q43 0 66 -20q-22 -22 -24.5 -59t14.5 -65t46 -28q21 0 38 12q118 76 6.5 180.5t-252.5 145.5h292q66 -98 59 -180.5t-61 -143t-128.5 -94.5t-143.5 -34t-105 37.5t-19 110.5z" />
<glyph unicode="&#xb9;" horiz-adv-x="392" d="M38 1692l232 144v-476q0 -79 13 -119t43 -81h-254q30 41 43 81t13 119v266q0 33 -28 49.5t-62 16.5z" />
<glyph unicode="&#xba;" horiz-adv-x="636" d="M20 1486q0 146 78 240t218 94q141 0 220.5 -94t79.5 -240q0 -147 -79 -241.5t-219 -94.5q-141 0 -219.5 94t-78.5 242zM193.5 1324q6.5 -145 78.5 -136q69 8 118.5 159t44.5 296.5t-67 138.5q-74 -9 -127.5 -161t-47 -297z" />
<glyph unicode="&#xbb;" horiz-adv-x="700" d="M76 94l426 426l-426 424l42 42l468 -466l-468 -468zM274 94l368 370l42 -44l-368 -368z" />
<glyph unicode="&#xbc;" horiz-adv-x="1774" d="M84 1644l312 192v-638q0 -108 17 -161.5t59 -106.5h-342q40 54 57 107.5t17 160.5v356q0 45 -38 68.5t-82 21.5zM308 0l1012 1842h62q-773 -1408 -1012 -1842h-62zM940 282l486 584h148v-574h116v-44h-116q0 -109 17 -162.5t57 -105.5h-342q42 52 59 105.5t17 162.5h-420 zM994 292h388v466z" />
<glyph unicode="&#xbd;" horiz-adv-x="1836" d="M86 1644l312 192v-638q-1 -107 16 -160t58 -108h-342q42 53 59 106.5t17 161.5v356q0 45 -38 68.5t-82 21.5zM308 0l1012 1842h64q-197 -359 -506 -921t-506 -921h-64zM980 -20q0 88 30.5 160.5t79 122t107 92t117 81t107 79t79 95.5t30.5 122q-1 59 -43.5 91.5 t-102.5 32.5q-58 0 -101 -29t-43 -77q0 -43 27 -73t69 -45q-13 -66 -61 -101t-109 -35q-67 0 -116 41t-48 111q1 59 35 106t88 75t116.5 42.5t126.5 14.5q69 0 134.5 -15.5t122 -46t91 -83.5t34.5 -121q0 -71 -38.5 -130.5t-100.5 -99t-137 -71.5t-150.5 -54.5t-138.5 -41 t-104.5 -37.5t-44.5 -38q302 0 435.5 17.5t212.5 88.5q17 -208 32 -274h-736z" />
<glyph unicode="&#xbe;" horiz-adv-x="1904" d="M74 1148q-1 70 48 111t116 41q60 0 107.5 -35.5t60.5 -100.5q-40 -15 -67 -46t-27 -72q0 -49 35 -76.5t85 -27.5q47 0 96 70t64 166q17 118 -51 191t-209 73v30q172 0 236 99q45 68 18 147q-23 66 -81 87q-19 7 -39 7q-54 0 -104.5 -26.5t-89.5 -71.5t-65 -85.5 t-49 -86.5q-17 208 -32 274h60q40 0 139 13t141 13q134 -2 220 -50.5t86 -137.5q0 -60 -42.5 -108t-125.5 -74q96 -23 157 -93t61 -165q0 -90 -59.5 -161.5t-145.5 -107t-177 -35.5q-65 0 -127.5 14.5t-116.5 42.5t-87.5 75t-34.5 106zM436 0l1012 1842h64 q-197 -359 -506 -921t-506 -921h-64zM1070 282l486 584h146v-574h116v-44h-116q0 -109 17 -162.5t59 -105.5h-342q40 52 57 105.5t17 162.5h-420zM1122 292h388v466z" />
<glyph unicode="&#xbf;" horiz-adv-x="1248" d="M-36 358q2 70 25.5 126t61.5 94.5t86.5 69.5t103.5 54t110.5 44t108 43.5t95.5 48.5t75 63t44 83q13 49 -9 111.5t-94 143.5t-189 157h302q83 -106 112.5 -229.5t6.5 -238.5t-90 -221t-169 -183q-11 -9 -33 -25q-36 -27 -54 -41t-46 -39t-39.5 -43t-25.5 -46t-14.5 -54.5 t5.5 -61.5t23 -74q23 -52 73 -85t109 -33q68 0 130 50q77 63 79 149t-81 149q147 116 272 116q73 0 118 -41t47.5 -104.5t-37.5 -140.5q-69 -116 -218.5 -178t-323.5 -62q-192 0 -332 70q-109 54 -172.5 143.5t-59.5 184.5zM323 1699q27 77 117 115q43 18 94 24 q132 15 191 -57q46 -56 20 -130q-27 -77 -117 -115q-42 -18 -94 -24q-133 -15 -191 57q-46 56 -20 130z" />
<glyph unicode="&#xc0;" d="M0 0q115 151 213.5 357.5t284.5 670.5l304 752l350 40q0 -49 56.5 -246t146.5 -458.5t228 -573.5t277 -542h-714q59 200 -40 596h-688q-43 -210 -2.5 -349.5t174.5 -246.5h-590zM432 658h658q-66 240 -165 462.5t-193 341.5l-166 -414q-97 -243 -134 -390zM822 2188 l42 44l290 -288l-44 -44z" />
<glyph unicode="&#xc1;" d="M0 0q115 151 213.5 357.5t284.5 670.5l304 752l350 40q0 -49 56.5 -246t146.5 -458.5t228 -573.5t277 -542h-714q59 200 -40 596h-688q-43 -210 -2.5 -349.5t174.5 -246.5h-590zM432 658h658q-66 240 -165 462.5t-193 341.5l-166 -414q-97 -243 -134 -390zM802 1946 l280 280l42 -42l-280 -280z" />
<glyph unicode="&#xc2;" d="M0 0q115 151 213.5 357.5t284.5 670.5l304 752l350 40q0 -49 56.5 -246t146.5 -458.5t228 -573.5t277 -542h-714q59 200 -40 596h-688q-43 -210 -2.5 -349.5t174.5 -246.5h-590zM432 658h658q-66 240 -165 462.5t-193 341.5l-166 -414q-97 -243 -134 -390zM650 1946 l280 278l278 -278l-42 -42l-236 238l-238 -238z" />
<glyph unicode="&#xc3;" d="M0 0q115 151 213.5 357.5t284.5 670.5l304 752l350 40q0 -49 56.5 -246t146.5 -458.5t228 -573.5t277 -542h-714q59 200 -40 596h-688q-43 -210 -2.5 -349.5t174.5 -246.5h-590zM432 658h658q-66 240 -165 462.5t-193 341.5l-166 -414q-97 -243 -134 -390zM800 1894 q0 260 188 260q43 0 79 -25.5t77 -72.5l6 -6q27 -32 40.5 -47t34.5 -30t39 -15q95 0 86 196h56q0 -260 -188 -260q-73 0 -154 96l-6 6q-57 65 -79 79q-19 13 -35 13q-89 0 -88 -186v-8h-56z" />
<glyph unicode="&#xc4;" d="M0 0q115 151 213.5 357.5t284.5 670.5l304 752l350 40q0 -49 56.5 -246t146.5 -458.5t228 -573.5t277 -542h-714q59 200 -40 596h-688q-43 -210 -2.5 -349.5t174.5 -246.5h-590zM432 658h658q-66 240 -165 462.5t-193 341.5l-166 -414q-97 -243 -134 -390zM624 2064 q0 55 38 93.5t92 38.5q56 0 94 -38t38 -94q0 -54 -38.5 -92t-93.5 -38q-54 0 -92 38t-38 92zM972 2064q0 55 39 93.5t93 38.5t93 -38.5t39 -93.5q0 -54 -39 -92t-93 -38t-93 38t-39 92z" />
<glyph unicode="&#xc5;" d="M0 0q115 151 213.5 357.5t284.5 670.5l304 752l350 40q0 -49 56.5 -246t146.5 -458.5t228 -573.5t277 -542h-714q59 200 -40 596h-688q-43 -210 -2.5 -349.5t174.5 -246.5h-590zM432 658h658q-66 240 -165 462.5t-193 341.5l-166 -414q-97 -243 -134 -390zM750 2086 q0 75 52.5 128.5t125.5 53.5q75 0 128.5 -53.5t53.5 -128.5q0 -73 -53.5 -125.5t-128.5 -52.5q-74 0 -126 52t-52 126zM808 2086q0 -49 36 -84.5t86 -35.5t86 35.5t36 84.5q0 51 -36 86.5t-86 35.5t-86 -35.5t-36 -86.5z" />
<glyph unicode="&#xc6;" horiz-adv-x="3150" d="M0 0q115 151 213.5 357.5t284.5 670.5l304 752l350 40q0 -41 43 -198.5t113.5 -371.5t179.5 -484t222 -494q53 366 40.5 766t-88.5 742h1450q-66 -284 -82 -612q-56 183 -181 309.5t-285 184.5t-348 58q-67 -331 -78 -768q0 -14 8.5 -23t23.5 -9h148q144 0 251.5 59 t220.5 219q-14 -180 -14 -307t14 -309q-110 158 -219.5 218t-252.5 60h-150q-14 0 -23 -8.5t-9 -21.5q0 -385 80 -770q139 0 265 34t234.5 100.5t190.5 173.5t124 244q16 -328 82 -612h-1966q59 200 -40 596h-688q-43 -210 -2.5 -349.5t174.5 -246.5h-590zM432 658h658 q-66 240 -165 462.5t-193 341.5l-166 -414q-97 -243 -134 -390z" />
<glyph unicode="&#xc7;" horiz-adv-x="1626" d="M60 862q0 153 43 296.5t125 262.5t194 208.5t258 139.5t308 51q178 0 274 -32q93 -30 210 -30q74 0 148 16l20 6q-63 -297 -84 -634q-41 296 -153.5 443t-258.5 147q-81 0 -163.5 -43.5t-155 -127.5t-129 -196t-89.5 -259.5t-33 -307.5q0 -167 24 -300.5t65 -220.5 t98 -145t120.5 -83t134.5 -25q171 0 335 126.5t223 297.5q19 -223 66 -452l-20 6q-94 22 -188 22q-60 0 -120 -10q-31 -6 -94.5 -22t-111.5 -24t-100 -10q61 -123 16.5 -215t-135.5 -145.5t-181 -53.5q-69 0 -105 37t-19 111q13 56 80.5 97t133.5 41q41 0 64 -20 q-22 -22 -24.5 -59t14.5 -65t46 -28q21 0 38 12q101 64 25 163q-56 74 -170 128q-39 18 -73 27q-195 50 -346 184t-230.5 313.5t-79.5 372.5z" />
<glyph unicode="&#xc8;" horiz-adv-x="1550" d="M60 0q92 410 92 890t-92 890h1450q-63 -284 -82 -612q-55 183 -180 309.5t-285.5 184.5t-348.5 58q-68 -335 -76 -768q0 -14 8.5 -23t21.5 -9h148q145 0 252 59t220 219q-14 -180 -14 -307t14 -309q-110 158 -219.5 218t-252.5 60h-148q-32 0 -32 -30q0 -380 78 -770 q139 0 265.5 34t235 100.5t190 173.5t123.5 244q19 -328 82 -612h-1450zM618 2188l44 44l288 -288l-42 -44z" />
<glyph unicode="&#xc9;" horiz-adv-x="1550" d="M60 0q92 410 92 890t-92 890h1450q-63 -284 -82 -612q-55 183 -180 309.5t-285.5 184.5t-348.5 58q-68 -335 -76 -768q0 -14 8.5 -23t21.5 -9h148q145 0 252 59t220 219q-14 -180 -14 -307t14 -309q-110 158 -219.5 218t-252.5 60h-148q-32 0 -32 -30q0 -380 78 -770 q139 0 265.5 34t235 100.5t190 173.5t123.5 244q19 -328 82 -612h-1450zM622 1946l280 280l42 -42l-280 -280z" />
<glyph unicode="&#xca;" horiz-adv-x="1550" d="M60 0q92 410 92 890t-92 890h1450q-63 -284 -82 -612q-55 183 -180 309.5t-285.5 184.5t-348.5 58q-68 -335 -76 -768q0 -14 8.5 -23t21.5 -9h148q145 0 252 59t220 219q-14 -180 -14 -307t14 -309q-110 158 -219.5 218t-252.5 60h-148q-32 0 -32 -30q0 -380 78 -770 q139 0 265.5 34t235 100.5t190 173.5t123.5 244q19 -328 82 -612h-1450zM504 1946l280 278l278 -278l-42 -42l-236 238l-238 -238z" />
<glyph unicode="&#xcb;" horiz-adv-x="1550" d="M60 0q92 410 92 890t-92 890h1450q-63 -284 -82 -612q-55 183 -180 309.5t-285.5 184.5t-348.5 58q-68 -335 -76 -768q0 -14 8.5 -23t21.5 -9h148q145 0 252 59t220 219q-14 -180 -14 -307t14 -309q-110 158 -219.5 218t-252.5 60h-148q-32 0 -32 -30q0 -380 78 -770 q139 0 265.5 34t235 100.5t190 173.5t123.5 244q19 -328 82 -612h-1450zM478 2064q0 55 38 93.5t92 38.5q56 0 94 -38t38 -94q0 -54 -38.5 -92t-93.5 -38q-54 0 -92 38t-38 92zM826 2064q0 55 39 93.5t93 38.5t93 -38.5t39 -93.5q0 -54 -39 -92t-93 -38t-93 38t-39 92z" />
<glyph unicode="&#xcc;" horiz-adv-x="686" d="M60 0q92 410 92 890t-92 890h566q-90 -410 -90 -890t90 -890h-566zM190 2188l42 44l288 -288l-42 -44z" />
<glyph unicode="&#xcd;" horiz-adv-x="686" d="M60 0q92 410 92 890t-92 890h566q-90 -410 -90 -890t90 -890h-566zM142 1946l280 280l42 -42l-280 -280z" />
<glyph unicode="&#xce;" horiz-adv-x="686" d="M60 0q92 410 92 890t-92 890h566q-90 -410 -90 -890t90 -890h-566zM64 1946l280 278l278 -278l-42 -42l-236 238l-238 -238z" />
<glyph unicode="&#xcf;" horiz-adv-x="686" d="M38 2064q0 55 38 93.5t92 38.5q56 0 94 -38t38 -94q0 -54 -38.5 -92t-93.5 -38q-54 0 -92 38t-38 92zM60 0q92 410 92 890t-92 890h566q-90 -410 -90 -890t90 -890h-566zM386 2064q0 55 39 93.5t93 38.5t93 -38.5t39 -93.5q0 -54 -39 -92t-93 -38t-93 38t-39 92z" />
<glyph unicode="&#xd0;" horiz-adv-x="1764" d="M0 906v60h150q-6 440 -90 814h838q175 0 321 -61.5t239.5 -164.5t158.5 -236.5t78 -281.5t-2.5 -295.5t-82.5 -280.5t-162 -236t-242 -163.5t-322 -60.5h-824q93 417 90 906h-150zM536 376q0 -154 54 -232t142 -78q76 0 162 57.5t165 159.5t140 260.5t83 340.5 q42 361 -33.5 574t-216.5 246q-54 12 -104 12q-106 0 -183.5 -60t-121 -167.5t-63.5 -236t-22 -286.5h364v-60h-366v-530z" />
<glyph unicode="&#xd1;" horiz-adv-x="1756" d="M60 0q92 410 92 890t-92 890h566q26 -99 114.5 -239.5t201 -275t233.5 -264t216.5 -219.5t146.5 -128q9 148 6 300q-3 205 -76 428.5t-182 397.5h410q-92 -409 -92 -889.5t92 -890.5h-378q-21 74 -125 229.5t-278 375t-322.5 400t-350.5 419.5q-33 -276 -30 -568 q1 -210 74.5 -439t183.5 -417h-410zM658 1934q0 260 188 260q72 0 154 -98l6 -6q57 -65 79 -79q19 -13 35 -13q90 0 88 186v10h56q0 -260 -188 -260q-73 0 -154 96l-6 6q-25 28 -32 36t-25.5 26t-31.5 24t-27 6q-18 0 -32.5 -7.5t-23 -19.5t-15.5 -28t-9.5 -33.5t-4.5 -35 t-1.5 -33t0.5 -27.5v-10h-56z" />
<glyph unicode="&#xd2;" horiz-adv-x="1860" d="M60 890q0 191 64.5 362t177 296t276 198.5t352.5 73.5t352.5 -73.5t276 -198.5t177 -296t64.5 -362t-64.5 -362t-177 -296t-276 -198.5t-352.5 -73.5t-352.5 73.5t-276 198.5t-177 296t-64.5 362zM514 597q-7 -156 11 -282t70.5 -202.5t134.5 -76.5q101 0 194 68t163 183 t121.5 258t79.5 301q52 288 28.5 487.5t-96 305t-174.5 105.5q-67 0 -136 -50t-136 -147.5t-125.5 -259t-96.5 -367.5q-31 -167 -38 -323zM764 2188l44 44l288 -288l-42 -44z" />
<glyph unicode="&#xd3;" horiz-adv-x="1860" d="M60 890q0 191 64.5 362t177 296t276 198.5t352.5 73.5t352.5 -73.5t276 -198.5t177 -296t64.5 -362t-64.5 -362t-177 -296t-276 -198.5t-352.5 -73.5t-352.5 73.5t-276 198.5t-177 296t-64.5 362zM514 597q-7 -156 11 -282t70.5 -202.5t134.5 -76.5q101 0 194 68t163 183 t121.5 258t79.5 301q52 288 28.5 487.5t-96 305t-174.5 105.5q-67 0 -136 -50t-136 -147.5t-125.5 -259t-96.5 -367.5q-31 -167 -38 -323zM768 1946l280 280l42 -42l-280 -280z" />
<glyph unicode="&#xd4;" horiz-adv-x="1860" d="M60 890q0 191 64.5 362t177 296t276 198.5t352.5 73.5t352.5 -73.5t276 -198.5t177 -296t64.5 -362t-64.5 -362t-177 -296t-276 -198.5t-352.5 -73.5t-352.5 73.5t-276 198.5t-177 296t-64.5 362zM514 597q-7 -156 11 -282t70.5 -202.5t134.5 -76.5q101 0 194 68t163 183 t121.5 258t79.5 301q52 288 28.5 487.5t-96 305t-174.5 105.5q-67 0 -136 -50t-136 -147.5t-125.5 -259t-96.5 -367.5q-31 -167 -38 -323zM650 1946l280 278l278 -278l-42 -42l-236 238l-238 -238z" />
<glyph unicode="&#xd5;" horiz-adv-x="1860" d="M60 890q0 191 64.5 362t177 296t276 198.5t352.5 73.5t352.5 -73.5t276 -198.5t177 -296t64.5 -362t-64.5 -362t-177 -296t-276 -198.5t-352.5 -73.5t-352.5 73.5t-276 198.5t-177 296t-64.5 362zM514 597q-7 -156 11 -282t70.5 -202.5t134.5 -76.5q101 0 194 68t163 183 t121.5 258t79.5 301q52 288 28.5 487.5t-96 305t-174.5 105.5q-67 0 -136 -50t-136 -147.5t-125.5 -259t-96.5 -367.5q-31 -167 -38 -323zM628 1934q0 260 188 260q72 0 154 -98l6 -6q57 -65 79 -79q19 -13 35 -13q90 0 88 186v10h56q0 -260 -188 -260q-73 0 -154 96l-6 6 q-25 28 -32 36t-25.5 26t-31.5 24t-27 6q-18 0 -32.5 -7.5t-23 -19.5t-15.5 -28t-9.5 -33.5t-4.5 -35t-1.5 -33t0.5 -27.5v-10h-56z" />
<glyph unicode="&#xd6;" horiz-adv-x="1860" d="M60 890q0 191 64.5 362t177 296t276 198.5t352.5 73.5t352.5 -73.5t276 -198.5t177 -296t64.5 -362t-64.5 -362t-177 -296t-276 -198.5t-352.5 -73.5t-352.5 73.5t-276 198.5t-177 296t-64.5 362zM514 597q-7 -156 11 -282t70.5 -202.5t134.5 -76.5q101 0 194 68t163 183 t121.5 258t79.5 301q52 288 28.5 487.5t-96 305t-174.5 105.5q-67 0 -136 -50t-136 -147.5t-125.5 -259t-96.5 -367.5q-31 -167 -38 -323zM624 2064q0 55 38 93.5t92 38.5q56 0 94 -38t38 -94q0 -54 -38.5 -92t-93.5 -38q-54 0 -92 38t-38 92zM972 2064q0 55 39 93.5 t93 38.5t93 -38.5t39 -93.5q0 -54 -39 -92t-93 -38t-93 38t-39 92z" />
<glyph unicode="&#xd7;" horiz-adv-x="852" d="M98 656l286 290l-284 284l40 42l286 -286l284 286l44 -44l-284 -284l284 -286l-42 -40l-284 284l-288 -288z" />
<glyph unicode="&#xd8;" horiz-adv-x="1860" d="M60 890q0 191 64.5 362t177 296t276 198.5t352.5 73.5q139 0 268 -40l68 196h64l-76 -216q250 -100 398 -335.5t148 -534.5q0 -191 -64.5 -362t-177 -296t-276 -198.5t-352.5 -73.5q-153 0 -288 48l-72 -210h-64l82 230q-243 105 -385.5 337.5t-142.5 524.5zM514.5 429 q13.5 -238 95.5 -335l560 1604q-57 48 -122 48q-54 0 -109.5 -31t-111.5 -97t-106 -161.5t-94 -233t-75 -303.5q-51 -253 -37.5 -491zM660 54q30 -18 70 -18q101 0 194 68t163 183t121.5 258t79.5 301q35 188 35 349.5t-28 272t-79 180.5z" />
<glyph unicode="&#xd9;" horiz-adv-x="1640" d="M30 1780h566q-48 -221 -69 -450.5t-21 -627.5q0 -159 39.5 -286t105.5 -203t145 -115.5t164 -39.5q94 0 170 42t123 108t78.5 153t44 171.5t12.5 169.5q0 330 -36 550t-96 335.5t-156 192.5h520q-44 -61 -70.5 -121.5t-53 -176.5t-38.5 -308t-12 -472 q0 -122 -19.5 -227.5t-66 -202t-117.5 -164.5t-181 -108t-250 -40q-103 0 -202.5 30.5t-188 92.5t-156 148.5t-106.5 206.5t-39 258q0 391 -20 625.5t-70 458.5zM660 2188l44 44l288 -288l-42 -44z" />
<glyph unicode="&#xda;" horiz-adv-x="1640" d="M30 1780h566q-48 -221 -69 -450.5t-21 -627.5q0 -159 39.5 -286t105.5 -203t145 -115.5t164 -39.5q94 0 170 42t123 108t78.5 153t44 171.5t12.5 169.5q0 330 -36 550t-96 335.5t-156 192.5h520q-44 -61 -70.5 -121.5t-53 -176.5t-38.5 -308t-12 -472 q0 -122 -19.5 -227.5t-66 -202t-117.5 -164.5t-181 -108t-250 -40q-103 0 -202.5 30.5t-188 92.5t-156 148.5t-106.5 206.5t-39 258q0 391 -20 625.5t-70 458.5zM664 1946l280 280l42 -42l-280 -280z" />
<glyph unicode="&#xdb;" horiz-adv-x="1640" d="M30 1780h566q-48 -221 -69 -450.5t-21 -627.5q0 -159 39.5 -286t105.5 -203t145 -115.5t164 -39.5q94 0 170 42t123 108t78.5 153t44 171.5t12.5 169.5q0 330 -36 550t-96 335.5t-156 192.5h520q-44 -61 -70.5 -121.5t-53 -176.5t-38.5 -308t-12 -472 q0 -122 -19.5 -227.5t-66 -202t-117.5 -164.5t-181 -108t-250 -40q-103 0 -202.5 30.5t-188 92.5t-156 148.5t-106.5 206.5t-39 258q0 391 -20 625.5t-70 458.5zM546 1946l280 278l278 -278l-42 -42l-236 238l-238 -238z" />
<glyph unicode="&#xdc;" horiz-adv-x="1640" d="M30 1780h566q-48 -221 -69 -450.5t-21 -627.5q0 -159 39.5 -286t105.5 -203t145 -115.5t164 -39.5q94 0 170 42t123 108t78.5 153t44 171.5t12.5 169.5q0 330 -36 550t-96 335.5t-156 192.5h520q-44 -61 -70.5 -121.5t-53 -176.5t-38.5 -308t-12 -472 q0 -122 -19.5 -227.5t-66 -202t-117.5 -164.5t-181 -108t-250 -40q-103 0 -202.5 30.5t-188 92.5t-156 148.5t-106.5 206.5t-39 258q0 391 -20 625.5t-70 458.5zM520 2064q0 55 38 93.5t92 38.5q56 0 94 -38t38 -94q0 -54 -38.5 -92t-93.5 -38q-54 0 -92 38t-38 92z M868 2064q0 55 39 93.5t93 38.5t93 -38.5t39 -93.5q0 -54 -39 -92t-93 -38t-93 38t-39 92z" />
<glyph unicode="&#xdd;" horiz-adv-x="1568" d="M-100 1780h712q-6 -84 6 -176t43.5 -188.5t63 -177t83 -181t83 -158t83.5 -147.5q320 736 106 1028h588q-126 -105 -259 -308t-228 -401t-171 -399q6 -179 27 -329t63 -343h-566q27 126 40 193.5t26 166t18 200.5q-33 124 -174 399.5t-303.5 527t-240.5 293.5zM680 1946 l280 280l42 -42l-280 -280z" />
<glyph unicode="&#xde;" horiz-adv-x="1348" d="M56 0q68 278 68 816t-68 964h526q-6 -42 -11.5 -83.5t-9.5 -72t-8.5 -74.5t-6.5 -64t-5.5 -69t-4.5 -61.5t-4.5 -70t-4 -65.5t-4 -76t-3.5 -76q30 130 85.5 234t123.5 169t141.5 99t145.5 34q60 0 106 -20q121 -50 182.5 -201.5t33.5 -344.5q-19 -131 -84.5 -255 t-166.5 -224.5t-245 -164t-306 -70.5q21 -209 46 -324h-526zM524 802q-24 -194 4 -426q21 -6 44 -6q82 0 161 85.5t133.5 216t77.5 274.5q28 168 21 275.5t-36.5 158t-76.5 50.5q-59 0 -126.5 -77.5t-122.5 -217t-79 -333.5z" />
<glyph unicode="&#xdf;" horiz-adv-x="1624" d="M60 0q96 434 90 938q-2 151 26 278t81 218t123 160t154.5 110.5t172 61.5t179.5 20q151 0 284 -49t215.5 -139.5t82.5 -201.5q0 -75 -52.5 -151t-143.5 -137q-35 -24 -54.5 -38.5t-30.5 -29.5t-10 -24.5t15 -22t36 -23.5t62 -28q94 -39 170 -99.5t125.5 -144.5t50.5 -174 q0 -102 -50.5 -195.5t-147.5 -169.5t-257.5 -119.5t-360.5 -39.5l-20 66q108 0 197 84t151 214q49 111 45.5 202t-54 162t-131 119.5t-186.5 72.5q-39 9 -62.5 32t-18 47.5t42.5 34.5q145 40 225.5 123.5t86.5 208.5q2 41 -6 87.5t-27 93.5t-46.5 85t-69.5 61.5t-91 24.5 q-28 0 -65 -17.5t-83.5 -64t-84 -115.5t-63 -186.5t-24.5 -262.5q2 -330 19.5 -580t70.5 -492h-566z" />
<glyph unicode="&#xe0;" horiz-adv-x="1266" d="M-4 410q18 128 101 230t198 155t237 53q159 0 272 -90q73 150 26 308q-21 71 -68.5 113.5t-93.5 42.5q-33 0 -55 -22t-25 -64q-19 -236 -234 -262q-66 -7 -115.5 14.5t-70 58.5t-9 84.5t58.5 88.5q90 80 208.5 123t239.5 43q105 0 195 -33.5t158 -98.5t98 -173t9 -245 q-10 -66 -13 -87t-9.5 -86t-4.5 -99t8 -98t21 -114.5t40.5 -117.5t61.5 -134h-526q-24 84 -18 180q-54 -107 -149.5 -164.5t-202.5 -57.5q-75 0 -142 29t-117 83.5t-72.5 143t-6.5 196.5zM388 285q9 -76 41.5 -118.5t78.5 -42.5q78 0 148 126t94 372q0 66 -26.5 100 t-69.5 34q-70 0 -143.5 -79t-106.5 -211q-25 -105 -16 -181zM444 1650l44 44l288 -288l-42 -44z" />
<glyph unicode="&#xe1;" horiz-adv-x="1266" d="M-4 410q18 128 101 230t198 155t237 53q159 0 272 -90q73 150 26 308q-21 71 -68.5 113.5t-93.5 42.5q-33 0 -55 -22t-25 -64q-19 -236 -234 -262q-66 -7 -115.5 14.5t-70 58.5t-9 84.5t58.5 88.5q90 80 208.5 123t239.5 43q105 0 195 -33.5t158 -98.5t98 -173t9 -245 q-10 -66 -13 -87t-9.5 -86t-4.5 -99t8 -98t21 -114.5t40.5 -117.5t61.5 -134h-526q-24 84 -18 180q-54 -107 -149.5 -164.5t-202.5 -57.5q-75 0 -142 29t-117 83.5t-72.5 143t-6.5 196.5zM388 285q9 -76 41.5 -118.5t78.5 -42.5q78 0 148 126t94 372q0 66 -26.5 100 t-69.5 34q-70 0 -143.5 -79t-106.5 -211q-25 -105 -16 -181zM448 1408l280 280l42 -42l-280 -280z" />
<glyph unicode="&#xe2;" horiz-adv-x="1266" d="M-4 410q18 128 101 230t198 155t237 53q159 0 272 -90q73 150 26 308q-21 71 -68.5 113.5t-93.5 42.5q-33 0 -55 -22t-25 -64q-19 -236 -234 -262q-66 -7 -115.5 14.5t-70 58.5t-9 84.5t58.5 88.5q90 80 208.5 123t239.5 43q105 0 195 -33.5t158 -98.5t98 -173t9 -245 q-10 -66 -13 -87t-9.5 -86t-4.5 -99t8 -98t21 -114.5t40.5 -117.5t61.5 -134h-526q-24 84 -18 180q-54 -107 -149.5 -164.5t-202.5 -57.5q-75 0 -142 29t-117 83.5t-72.5 143t-6.5 196.5zM330 1408l280 278l278 -278l-42 -42l-236 238l-238 -238zM388 285q9 -76 41.5 -118.5 t78.5 -42.5q78 0 148 126t94 372q0 66 -26.5 100t-69.5 34q-70 0 -143.5 -79t-106.5 -211q-25 -105 -16 -181z" />
<glyph unicode="&#xe3;" horiz-adv-x="1266" d="M-4 410q18 128 101 230t198 155t237 53q159 0 272 -90q73 150 26 308q-21 71 -68.5 113.5t-93.5 42.5q-33 0 -55 -22t-25 -64q-19 -236 -234 -262q-66 -7 -115.5 14.5t-70 58.5t-9 84.5t58.5 88.5q90 80 208.5 123t239.5 43q105 0 195 -33.5t158 -98.5t98 -173t9 -245 q-10 -66 -13 -87t-9.5 -86t-4.5 -99t8 -98t21 -114.5t40.5 -117.5t61.5 -134h-526q-24 84 -18 180q-54 -107 -149.5 -164.5t-202.5 -57.5q-75 0 -142 29t-117 83.5t-72.5 143t-6.5 196.5zM308 1396q0 260 188 260q72 0 154 -98l6 -6q57 -65 79 -79q19 -13 35 -13 q90 0 88 186v10h56q0 -260 -188 -260q-73 0 -154 96l-6 6q-25 28 -32 36t-25.5 26t-31.5 24t-27 6q-18 0 -32.5 -7.5t-23 -19.5t-15.5 -28t-9.5 -33.5t-4.5 -35t-1.5 -33t0.5 -27.5v-10h-56zM388 285q9 -76 41.5 -118.5t78.5 -42.5q78 0 148 126t94 372q0 66 -26.5 100 t-69.5 34q-70 0 -143.5 -79t-106.5 -211q-25 -105 -16 -181z" />
<glyph unicode="&#xe4;" horiz-adv-x="1266" d="M-4 410q18 128 101 230t198 155t237 53q159 0 272 -90q73 150 26 308q-21 71 -68.5 113.5t-93.5 42.5q-33 0 -55 -22t-25 -64q-19 -236 -234 -262q-66 -7 -115.5 14.5t-70 58.5t-9 84.5t58.5 88.5q90 80 208.5 123t239.5 43q105 0 195 -33.5t158 -98.5t98 -173t9 -245 q-10 -66 -13 -87t-9.5 -86t-4.5 -99t8 -98t21 -114.5t40.5 -117.5t61.5 -134h-526q-24 84 -18 180q-54 -107 -149.5 -164.5t-202.5 -57.5q-75 0 -142 29t-117 83.5t-72.5 143t-6.5 196.5zM304 1526q0 55 38 93.5t92 38.5q56 0 94 -38t38 -94q0 -54 -38.5 -92t-93.5 -38 q-54 0 -92 38t-38 92zM388 285q9 -76 41.5 -118.5t78.5 -42.5q78 0 148 126t94 372q0 66 -26.5 100t-69.5 34q-70 0 -143.5 -79t-106.5 -211q-25 -105 -16 -181zM652 1526q0 55 39 93.5t93 38.5t93 -38.5t39 -93.5q0 -54 -39 -92t-93 -38t-93 38t-39 92z" />
<glyph unicode="&#xe5;" horiz-adv-x="1266" d="M-4 410q18 128 101 230t198 155t237 53q159 0 272 -90q73 150 26 308q-21 71 -68.5 113.5t-93.5 42.5q-33 0 -55 -22t-25 -64q-19 -236 -234 -262q-66 -7 -115.5 14.5t-70 58.5t-9 84.5t58.5 88.5q90 80 208.5 123t239.5 43q105 0 195 -33.5t158 -98.5t98 -173t9 -245 q-10 -66 -13 -87t-9.5 -86t-4.5 -99t8 -98t21 -114.5t40.5 -117.5t61.5 -134h-526q-24 84 -18 180q-54 -107 -149.5 -164.5t-202.5 -57.5q-75 0 -142 29t-117 83.5t-72.5 143t-6.5 196.5zM388 285q9 -76 41.5 -118.5t78.5 -42.5q78 0 148 126t94 372q0 66 -26.5 100 t-69.5 34q-70 0 -143.5 -79t-106.5 -211q-25 -105 -16 -181zM430 1548q0 75 52.5 128.5t125.5 53.5q75 0 128.5 -53.5t53.5 -128.5q0 -73 -53.5 -125.5t-128.5 -52.5q-74 0 -126 52t-52 126zM488 1548q0 -49 36 -84.5t86 -35.5t86 35.5t36 84.5q0 51 -36 86.5t-86 35.5 t-86 -35.5t-36 -86.5z" />
<glyph unicode="&#xe6;" horiz-adv-x="2212" d="M-6 410q18 128 101 230t198.5 155t238.5 53q159 0 272 -90q71 156 24 308q-21 71 -68.5 113.5t-93.5 42.5q-33 0 -55 -22t-25 -64q-16 -235 -234 -262q-65 -7 -114.5 14.5t-69.5 58.5t-9 84.5t57 88.5q90 80 208.5 123t239.5 43q90 0 169.5 -24.5t144 -72t105.5 -125 t49 -176.5q78 180 236.5 287t361.5 107q78 0 151.5 -17t139.5 -52t108.5 -97t46.5 -144q4 -94 -46.5 -179t-132.5 -143.5t-182 -102t-196 -64.5t-173 -21q4 -84 27 -162.5t62.5 -142t100.5 -99.5t134 -32q67 4 76 73t-30 150.5t-96 122.5q147 116 272 116q112 0 152.5 -87 t-24.5 -199q-64 -112 -181.5 -177t-248.5 -65q-216 0 -368.5 110.5t-215.5 289.5q23 -172 124 -360h-528q-24 84 -18 180q-54 -107 -149 -164.5t-203 -57.5q-75 0 -141.5 29t-116.5 83.5t-72.5 143t-7.5 196.5zM388 285q9 -76 41 -118.5t77 -42.5q78 0 148 126t94 372 q0 67 -26 100.5t-70 33.5q-68 0 -141.5 -79t-106.5 -211q-25 -105 -16 -181zM1444 520q92 5 175 68t135.5 153t73.5 187q29 154 9 225t-77 71q-70 0 -153 -103t-127 -269q-39 -148 -36 -332z" />
<glyph unicode="&#xe7;" horiz-adv-x="1188" d="M40 586q1 145 41 264.5t105 198t151 132.5t177 77.5t186 23.5q164 0 291.5 -66t158.5 -174q29 -100 -54 -180q-62 -59 -184 -76q-66 -7 -116.5 12t-72.5 53.5t-11.5 80t56.5 86.5q21 19 39 60.5t12.5 84.5t-47.5 55q-59 14 -124 -34t-117 -137t-81 -195 q-19 -72 -28.5 -160.5t-7.5 -194.5t34.5 -209t93.5 -172q45 -49 97 -72.5t101 -17.5q41 5 61 34t17 71t-19 88t-45 87.5t-62 65.5q147 116 270 116q112 0 152.5 -87t-22.5 -199q-47 -78 -128 -141.5t-194 -88.5q51 -92 38 -169t-67 -133.5t-126.5 -88t-138.5 -31.5 q-69 0 -105 37t-19 111q13 56 80.5 97t133.5 41q41 0 64 -20q-22 -22 -24.5 -59t14.5 -65t46 -28q21 0 38 12q52 33 56.5 75t-29.5 82.5t-82 74.5t-105 62q-233 38 -369.5 212.5t-134.5 403.5z" />
<glyph unicode="&#xe8;" horiz-adv-x="1182" d="M40 580q0 195 84 355.5t236.5 253.5t341.5 93q77 0 150.5 -17t139.5 -52t108 -97t46 -144q4 -79 -31 -152t-96 -127.5t-138.5 -99t-161 -73t-161.5 -43.5t-142 -15q5 -84 28.5 -162.5t62.5 -142t100 -99.5t133 -32q67 4 76 73t-29.5 150.5t-94.5 122.5q147 116 270 116 q112 0 152.5 -87t-22.5 -199q-67 -113 -183.5 -177.5t-248.5 -64.5q-141 0 -259.5 50.5t-196.5 136.5t-121 198t-43 235zM414 520q92 5 175.5 68.5t135.5 153t73 186.5q29 154 9 225t-77 71q-70 0 -153 -103t-127 -269q-36 -137 -36 -332zM496 1650l44 44l288 -288l-42 -44z " />
<glyph unicode="&#xe9;" horiz-adv-x="1182" d="M40 580q0 195 84 355.5t236.5 253.5t341.5 93q77 0 150.5 -17t139.5 -52t108 -97t46 -144q4 -79 -31 -152t-96 -127.5t-138.5 -99t-161 -73t-161.5 -43.5t-142 -15q5 -84 28.5 -162.5t62.5 -142t100 -99.5t133 -32q67 4 76 73t-29.5 150.5t-94.5 122.5q147 116 270 116 q112 0 152.5 -87t-22.5 -199q-67 -113 -183.5 -177.5t-248.5 -64.5q-141 0 -259.5 50.5t-196.5 136.5t-121 198t-43 235zM414 520q92 5 175.5 68.5t135.5 153t73 186.5q29 154 9 225t-77 71q-70 0 -153 -103t-127 -269q-36 -137 -36 -332zM500 1408l280 280l42 -42 l-280 -280z" />
<glyph unicode="&#xea;" horiz-adv-x="1182" d="M40 580q0 195 84 355.5t236.5 253.5t341.5 93q77 0 150.5 -17t139.5 -52t108 -97t46 -144q4 -79 -31 -152t-96 -127.5t-138.5 -99t-161 -73t-161.5 -43.5t-142 -15q5 -84 28.5 -162.5t62.5 -142t100 -99.5t133 -32q67 4 76 73t-29.5 150.5t-94.5 122.5q147 116 270 116 q112 0 152.5 -87t-22.5 -199q-67 -113 -183.5 -177.5t-248.5 -64.5q-141 0 -259.5 50.5t-196.5 136.5t-121 198t-43 235zM382 1408l280 278l278 -278l-42 -42l-236 238l-238 -238zM414 520q92 5 175.5 68.5t135.5 153t73 186.5q29 154 9 225t-77 71q-70 0 -153 -103 t-127 -269q-36 -137 -36 -332z" />
<glyph unicode="&#xeb;" horiz-adv-x="1182" d="M40 580q0 195 84 355.5t236.5 253.5t341.5 93q77 0 150.5 -17t139.5 -52t108 -97t46 -144q4 -79 -31 -152t-96 -127.5t-138.5 -99t-161 -73t-161.5 -43.5t-142 -15q5 -84 28.5 -162.5t62.5 -142t100 -99.5t133 -32q67 4 76 73t-29.5 150.5t-94.5 122.5q147 116 270 116 q112 0 152.5 -87t-22.5 -199q-67 -113 -183.5 -177.5t-248.5 -64.5q-141 0 -259.5 50.5t-196.5 136.5t-121 198t-43 235zM356 1526q0 55 38 93.5t92 38.5q56 0 94 -38t38 -94q0 -54 -38.5 -92t-93.5 -38q-54 0 -92 38t-38 92zM414 520q92 5 175.5 68.5t135.5 153t73 186.5 q29 154 9 225t-77 71q-70 0 -153 -103t-127 -269q-36 -137 -36 -332zM704 1526q0 55 39 93.5t93 38.5t93 -38.5t39 -93.5q0 -54 -39 -92t-93 -38t-93 38t-39 92z" />
<glyph unicode="&#xec;" horiz-adv-x="674" d="M68 0q88 368 88 621t-88 621h526q-90 -367 -90 -620.5t90 -621.5h-526zM164 1650l44 44l288 -288l-42 -44z" />
<glyph unicode="&#xed;" horiz-adv-x="674" d="M68 0q88 368 88 621t-88 621h526q-90 -367 -90 -620.5t90 -621.5h-526zM168 1408l280 280l42 -42l-280 -280z" />
<glyph unicode="&#xee;" horiz-adv-x="674" d="M50 1408l280 278l278 -278l-42 -42l-236 238l-238 -238zM68 0q88 368 88 621t-88 621h526q-90 -367 -90 -620.5t90 -621.5h-526z" />
<glyph unicode="&#xef;" horiz-adv-x="674" d="M24 1526q0 55 38 93.5t92 38.5q56 0 94 -38t38 -94q0 -54 -38.5 -92t-93.5 -38q-54 0 -92 38t-38 92zM68 0q88 368 88 621t-88 621h526q-90 -367 -90 -620.5t90 -621.5h-526zM372 1526q0 55 39 93.5t93 38.5t93 -38.5t39 -93.5q0 -54 -39 -92t-93 -38t-93 38t-39 92z" />
<glyph unicode="&#xf0;" horiz-adv-x="1240" d="M40 620q0 140 38.5 259.5t111.5 208.5t185 139.5t251 50.5q103 0 184 -26q-36 121 -104 218l-148 -156l-42 44l152 160q-91 112 -240 198l46 70q142 -61 278 -180l162 174l38 -46l-156 -168q119 -115 210 -254.5t150.5 -322t59.5 -369.5q0 -140 -39.5 -260t-112.5 -209.5 t-186 -140t-252 -50.5t-251 50.5t-185 140t-111.5 209.5t-38.5 260zM396 535q-32 -264 20 -404q40 -107 122 -97q108 13 197 216q87 203 115 478q27 267 -25 396q-34 85 -97 78q-111 -13 -204 -205q-95 -194 -128 -462z" />
<glyph unicode="&#xf1;" horiz-adv-x="1398" d="M56 0q88 368 88 621t-88 621h526q-58 -235 -78.5 -410.5t-7.5 -351.5q7 158 43.5 292.5t90.5 226.5t122 157t138 95.5t138 30.5q81 0 144 -44t92 -126q21 -59 23.5 -126t-7 -131.5t-22.5 -136.5t-19 -152t-0.5 -165t37 -189t88.5 -212h-526q-25 94 -18 190.5t31 218.5 t50.5 226.5t42 214.5t4.5 182q-7 48 -29 73t-53 25q-44 0 -95.5 -47.5t-100 -140.5t-80.5 -230t-37.5 -315t29.5 -397h-526zM408 1396q0 260 188 260q72 0 154 -98l6 -6q57 -65 79 -79q19 -13 35 -13q90 0 88 186v10h56q0 -260 -188 -260q-73 0 -154 96l-6 6q-25 28 -32 36 t-25.5 26t-31.5 24t-27 6q-18 0 -32.5 -7.5t-23 -19.5t-15.5 -28t-9.5 -33.5t-4.5 -35t-1.5 -33t0.5 -27.5v-10h-56z" />
<glyph unicode="&#xf2;" horiz-adv-x="1256" d="M40 620q0 140 38.5 259.5t111.5 208.5t185 139.5t251 50.5t252 -50.5t186 -139t112.5 -208.5t39.5 -260t-39.5 -260t-112.5 -209.5t-186 -140t-252 -50.5t-251 50.5t-185 140t-111.5 209.5t-38.5 260zM396 535q-32 -264 20 -404q40 -107 122 -97q108 13 197 216 q87 203 115 478q27 267 -25 396q-34 85 -97 78q-111 -13 -204 -205q-95 -194 -128 -462zM462 1650l44 44l288 -288l-42 -44z" />
<glyph unicode="&#xf3;" horiz-adv-x="1256" d="M40 620q0 140 38.5 259.5t111.5 208.5t185 139.5t251 50.5t252 -50.5t186 -139t112.5 -208.5t39.5 -260t-39.5 -260t-112.5 -209.5t-186 -140t-252 -50.5t-251 50.5t-185 140t-111.5 209.5t-38.5 260zM396 535q-32 -264 20 -404q40 -107 122 -97q108 13 197 216 q87 203 115 478q27 267 -25 396q-34 85 -97 78q-111 -13 -204 -205q-95 -194 -128 -462zM466 1408l280 280l42 -42l-280 -280z" />
<glyph unicode="&#xf4;" horiz-adv-x="1256" d="M40 620q0 140 38.5 259.5t111.5 208.5t185 139.5t251 50.5t252 -50.5t186 -139t112.5 -208.5t39.5 -260t-39.5 -260t-112.5 -209.5t-186 -140t-252 -50.5t-251 50.5t-185 140t-111.5 209.5t-38.5 260zM348 1408l280 278l278 -278l-42 -42l-236 238l-238 -238zM396 535 q-32 -264 20 -404q40 -107 122 -97q108 13 197 216q87 203 115 478q27 267 -25 396q-34 85 -97 78q-111 -13 -204 -205q-95 -194 -128 -462z" />
<glyph unicode="&#xf5;" horiz-adv-x="1256" d="M40 620q0 140 38.5 259.5t111.5 208.5t185 139.5t251 50.5t252 -50.5t186 -139t112.5 -208.5t39.5 -260t-39.5 -260t-112.5 -209.5t-186 -140t-252 -50.5t-251 50.5t-185 140t-111.5 209.5t-38.5 260zM326 1396q0 260 188 260q72 0 154 -98l6 -6q57 -65 79 -79 q19 -13 35 -13q90 0 88 186v10h56q0 -260 -188 -260q-73 0 -154 96l-6 6q-25 28 -32 36t-25.5 26t-31.5 24t-27 6q-18 0 -32.5 -7.5t-23 -19.5t-15.5 -28t-9.5 -33.5t-4.5 -35t-1.5 -33t0.5 -27.5v-10h-56zM396 535q-32 -264 20 -404q40 -107 122 -97q108 13 197 216 q87 203 115 478q27 267 -25 396q-34 85 -97 78q-111 -13 -204 -205q-95 -194 -128 -462z" />
<glyph unicode="&#xf6;" horiz-adv-x="1256" d="M40 620q0 140 38.5 259.5t111.5 208.5t185 139.5t251 50.5t252 -50.5t186 -139t112.5 -208.5t39.5 -260t-39.5 -260t-112.5 -209.5t-186 -140t-252 -50.5t-251 50.5t-185 140t-111.5 209.5t-38.5 260zM322 1526q0 55 38 93.5t92 38.5q56 0 94 -38t38 -94q0 -54 -38.5 -92 t-93.5 -38q-54 0 -92 38t-38 92zM396 535q-32 -264 20 -404q40 -107 122 -97q108 13 197 216q87 203 115 478q27 267 -25 396q-34 85 -97 78q-111 -13 -204 -205q-95 -194 -128 -462zM670 1526q0 55 39 93.5t93 38.5t93 -38.5t39 -93.5q0 -54 -39 -92t-93 -38t-93 38t-39 92 z" />
<glyph unicode="&#xf7;" horiz-adv-x="922" d="M28 918v52h866v-52h-866zM296 696q0 69 47.5 116.5t116.5 47.5q68 0 116 -47.5t48 -116.5q0 -67 -48 -114.5t-116 -47.5q-69 0 -116.5 47t-47.5 115zM296 1190q0 69 47.5 116.5t116.5 47.5q68 0 116 -47.5t48 -116.5q0 -67 -48 -114.5t-116 -47.5q-69 0 -116.5 47 t-47.5 115z" />
<glyph unicode="&#xf8;" horiz-adv-x="1256" d="M40 620q0 140 38.5 259.5t111.5 208.5t185 139.5t251 50.5q78 0 152 -16l58 166h64l-64 -184q182 -64 281 -230.5t99 -393.5q0 -140 -39.5 -260t-112.5 -209.5t-186 -140t-252 -50.5q-122 0 -224 40l-58 -166h-64l66 190q-148 78 -227 235.5t-79 360.5zM384.5 361 q-2.5 -104 17.5 -181l354 1020q-17 4 -28 2q-57 -7 -111.5 -64t-94.5 -145t-73 -197t-47.5 -220t-17 -215zM434 92q38 -67 104 -58q61 7 117.5 79t96 179.5t67 238t36 252t-3.5 224.5t-45 153z" />
<glyph unicode="&#xf9;" horiz-adv-x="1378" d="M16 1242h526q25 -94 18 -190.5t-31.5 -218.5t-51 -226.5t-41.5 -214.5t-4 -182q9 -63 45 -100.5t85 -37.5q35 0 70 19t70 63t63.5 107.5t48.5 159.5t27 212.5t-3.5 273.5t-39.5 335h526q-90 -368 -90 -621t90 -621h-526q44 176 70 348q-25 -97 -69 -169.5t-92.5 -113.5 t-110.5 -65.5t-114 -32t-112 -7.5q-86 0 -156 46t-98 124q-21 59 -24 126t6.5 131.5t22.5 136.5t19 152t1 165t-36.5 189t-88.5 212zM504 1646l44 44l288 -288l-42 -44z" />
<glyph unicode="&#xfa;" horiz-adv-x="1378" d="M16 1242h526q25 -94 18 -190.5t-31.5 -218.5t-51 -226.5t-41.5 -214.5t-4 -182q9 -63 45 -100.5t85 -37.5q35 0 70 19t70 63t63.5 107.5t48.5 159.5t27 212.5t-3.5 273.5t-39.5 335h526q-90 -368 -90 -621t90 -621h-526q44 176 70 348q-25 -97 -69 -169.5t-92.5 -113.5 t-110.5 -65.5t-114 -32t-112 -7.5q-86 0 -156 46t-98 124q-21 59 -24 126t6.5 131.5t22.5 136.5t19 152t1 165t-36.5 189t-88.5 212zM508 1404l280 280l42 -42l-280 -280z" />
<glyph unicode="&#xfb;" horiz-adv-x="1378" d="M16 1242h526q25 -94 18 -190.5t-31.5 -218.5t-51 -226.5t-41.5 -214.5t-4 -182q9 -63 45 -100.5t85 -37.5q35 0 70 19t70 63t63.5 107.5t48.5 159.5t27 212.5t-3.5 273.5t-39.5 335h526q-90 -368 -90 -621t90 -621h-526q44 176 70 348q-25 -97 -69 -169.5t-92.5 -113.5 t-110.5 -65.5t-114 -32t-112 -7.5q-86 0 -156 46t-98 124q-21 59 -24 126t6.5 131.5t22.5 136.5t19 152t1 165t-36.5 189t-88.5 212zM390 1404l280 278l278 -278l-42 -42l-236 238l-238 -238z" />
<glyph unicode="&#xfc;" horiz-adv-x="1378" d="M16 1242h526q25 -94 18 -190.5t-31.5 -218.5t-51 -226.5t-41.5 -214.5t-4 -182q9 -63 45 -100.5t85 -37.5q35 0 70 19t70 63t63.5 107.5t48.5 159.5t27 212.5t-3.5 273.5t-39.5 335h526q-90 -368 -90 -621t90 -621h-526q44 176 70 348q-25 -97 -69 -169.5t-92.5 -113.5 t-110.5 -65.5t-114 -32t-112 -7.5q-86 0 -156 46t-98 124q-21 59 -24 126t6.5 131.5t22.5 136.5t19 152t1 165t-36.5 189t-88.5 212zM364 1522q0 55 38 93.5t92 38.5q56 0 94 -38t38 -94q0 -54 -38.5 -92t-93.5 -38q-54 0 -92 38t-38 92zM712 1522q0 55 39 93.5t93 38.5 t93 -38.5t39 -93.5q0 -54 -39 -92t-93 -38t-93 38t-39 92z" />
<glyph unicode="&#xfd;" horiz-adv-x="1246" d="M-26 1242h526q30 -93 23.5 -243.5t-28.5 -279.5t-37 -275.5t-2 -233.5q9 -54 40 -83t76 -29q40 0 83 24t84.5 76t73 125t47 182t8.5 235q-9 161 -43 292.5t-87 209.5h526q-66 -78 -102 -202.5t-47 -268.5t-16 -288t-21 -301t-50 -268q-134 -427 -622 -452 q-182 -10 -258 73q-58 64 -24 152q38 94 164 158q113 57 270 71q-11 -114 58 -158q52 -32 112 -32q78 0 146 51t90 129q27 81 21 182.5t-28 190t-55 163.5q-16 -112 -60.5 -203.5t-106 -150t-133 -91.5t-144.5 -37q-72 -4 -136 21t-113.5 76t-76 136t-20.5 191q1 27 7 112.5 t7 128t-4 128.5t-20 151t-47 156t-81 182zM456 1408l280 280l42 -42l-280 -280z" />
<glyph unicode="&#xfe;" horiz-adv-x="1388" d="M56 -480q58 238 80 684t0 892t-80 684h526q-50 -204 -74 -558t-14 -634q16 167 69.5 303t128 219t158.5 127.5t166 44.5q58 0 104 -20q122 -50 184 -201t34 -345q-20 -134 -87 -259.5t-170 -226.5t-250.5 -163.5t-314.5 -66.5q22 -305 66 -480h-526zM507 406 q-13 -160 7 -346q30 -12 60 -12q81 0 159.5 85.5t133.5 216.5t77 274q29 168 21 275.5t-38 158t-77 50.5t-101.5 -49.5t-104.5 -141t-87 -221.5t-50 -290z" />
<glyph unicode="&#xff;" horiz-adv-x="1246" d="M-26 1242h526q30 -93 23.5 -243.5t-28.5 -279.5t-37 -275.5t-2 -233.5q9 -54 40 -83t76 -29q40 0 83 24t84.5 76t73 125t47 182t8.5 235q-9 161 -43 292.5t-87 209.5h526q-66 -78 -102 -202.5t-47 -268.5t-16 -288t-21 -301t-50 -268q-134 -427 -622 -452 q-182 -10 -258 73q-58 64 -24 152q38 94 164 158q113 57 270 71q-11 -114 58 -158q52 -32 112 -32q78 0 146 51t90 129q27 81 21 182.5t-28 190t-55 163.5q-16 -112 -60.5 -203.5t-106 -150t-133 -91.5t-144.5 -37q-72 -4 -136 21t-113.5 76t-76 136t-20.5 191q1 27 7 112.5 t7 128t-4 128.5t-20 151t-47 156t-81 182zM312 1526q0 55 38 93.5t92 38.5q56 0 94 -38t38 -94q0 -54 -38.5 -92t-93.5 -38q-54 0 -92 38t-38 92zM660 1526q0 55 39 93.5t93 38.5t93 -38.5t39 -93.5q0 -54 -39 -92t-93 -38t-93 38t-39 92z" />
<glyph unicode="&#x152;" horiz-adv-x="3128" d="M60 890q0 191 64.5 362t177 296t276 198.5t352.5 73.5q264 0 469 -136.5t311 -367.5q-24 247 -72 464h1450q-63 -284 -82 -612q-55 183 -180 309.5t-285.5 184.5t-348.5 58q-68 -335 -76 -768q0 -14 8.5 -23t21.5 -9h148q145 0 253 59t221 219q-14 -180 -14 -307t14 -309 q-112 158 -221 218t-253 60h-148q-32 0 -32 -30q0 -380 78 -770q139 0 266 34t235 100.5t189.5 173t123.5 244.5q19 -328 82 -612h-1450q48 217 72 464q-106 -231 -311 -367.5t-469 -136.5q-189 0 -352.5 73.5t-276 198.5t-177 296t-64.5 362zM514 597q-7 -156 11 -282 t70.5 -202.5t134.5 -76.5q101 0 194 68t163 183t121.5 258t79.5 301q52 288 28.5 487.5t-96 305t-174.5 105.5q-67 0 -136 -50t-136 -147.5t-125.5 -259t-96.5 -367.5q-31 -167 -38 -323z" />
<glyph unicode="&#x153;" horiz-adv-x="2308" d="M40 620q0 140 38.5 259.5t111.5 208.5t185 139.5t251 50.5q229 0 377 -128.5t195 -343.5q63 214 232 345t396 131q78 0 151.5 -17t139.5 -52t107.5 -97t45.5 -144q5 -94 -45.5 -179t-132 -143.5t-181.5 -102t-196 -64.5t-173 -21q4 -84 27 -162.5t62.5 -142t100.5 -99.5 t134 -32q67 4 76 73t-30 150.5t-96 122.5q147 116 270 116q112 0 152.5 -87t-22.5 -199q-67 -113 -182.5 -177.5t-247.5 -64.5q-228 0 -385.5 123.5t-212.5 318.5q-51 -203 -196.5 -322.5t-365.5 -119.5q-139 0 -251 50.5t-185 140t-111.5 209.5t-38.5 260zM396 535 q-32 -264 20 -404q40 -107 122 -97q108 13 197 216q87 203 115 478q27 267 -25 396q-34 85 -97 78q-111 -13 -204 -205q-95 -194 -128 -462zM1540 520q92 5 175 68t135.5 153t73.5 187q29 154 9 225t-77 71q-70 0 -153 -103t-127 -269q-39 -148 -36 -332z" />
<glyph unicode="&#x178;" horiz-adv-x="1568" d="M-100 1780h712q-6 -84 6 -176t43.5 -188.5t63 -177t83 -181t83 -158t83.5 -147.5q320 736 106 1028h588q-126 -105 -259 -308t-228 -401t-171 -399q6 -179 27 -329t63 -343h-566q27 126 40 193.5t26 166t18 200.5q-33 124 -174 399.5t-303.5 527t-240.5 293.5zM536 2064 q0 55 38 93.5t92 38.5q56 0 94 -38t38 -94q0 -54 -38.5 -92t-93.5 -38q-54 0 -92 38t-38 92zM884 2064q0 55 39 93.5t93 38.5t93 -38.5t39 -93.5q0 -54 -39 -92t-93 -38t-93 38t-39 92z" />
<glyph unicode="&#x2c6;" horiz-adv-x="676" d="M60 1544l278 278l278 -278l-40 -42l-238 238l-236 -238z" />
<glyph unicode="&#x2dc;" horiz-adv-x="854" d="M124 1520q0 260 188 260q72 0 154 -98l6 -6q57 -65 79 -79q19 -13 35 -13q90 0 88 186v10h56q0 -260 -188 -260q-73 0 -154 96l-6 6q-25 28 -32 36t-25.5 26t-31.5 24t-27 6q-18 0 -32.5 -7.5t-23 -19.5t-15.5 -28t-9.5 -33.5t-4.5 -35t-1.5 -33t0.5 -27.5v-10h-56z" />
<glyph unicode="&#x2000;" horiz-adv-x="1134" />
<glyph unicode="&#x2001;" horiz-adv-x="2268" />
<glyph unicode="&#x2002;" horiz-adv-x="1134" />
<glyph unicode="&#x2003;" horiz-adv-x="2268" />
<glyph unicode="&#x2004;" horiz-adv-x="756" />
<glyph unicode="&#x2005;" horiz-adv-x="567" />
<glyph unicode="&#x2006;" horiz-adv-x="378" />
<glyph unicode="&#x2007;" horiz-adv-x="378" />
<glyph unicode="&#x2008;" horiz-adv-x="283" />
<glyph unicode="&#x2009;" horiz-adv-x="453" />
<glyph unicode="&#x200a;" horiz-adv-x="126" />
<glyph unicode="&#x2010;" horiz-adv-x="1156" d="M144 918v52h868v-52h-868z" />
<glyph unicode="&#x2011;" horiz-adv-x="1156" d="M144 918v52h868v-52h-868z" />
<glyph unicode="&#x2012;" horiz-adv-x="1156" d="M144 918v52h868v-52h-868z" />
<glyph unicode="&#x2013;" horiz-adv-x="1276" d="M146 918v52h986v-52h-986z" />
<glyph unicode="&#x2014;" horiz-adv-x="1836" d="M146 918v52h1544v-52h-1544z" />
<glyph unicode="&#x2018;" horiz-adv-x="566" d="M120 1349q-45 80 6 201q56 133 196 231q78 55 170 87l24 -48q-104 -18 -183 -97q-56 -57 -52 -94q3 -27 41 -25q139 9 196 -66.5t0 -160.5t-196 -101q-150 -17 -202 73z" />
<glyph unicode="&#x2019;" horiz-adv-x="590" d="M106.5 1598.5q-57.5 75.5 0 161t197.5 100.5q150 17 201 -73q45 -80 -6 -201q-56 -133 -194 -231q-78 -55 -171 -87l-24 50q102 16 181 96q56 56 53 94q-3 27 -40 24q-140 -9 -197.5 66.5z" />
<glyph unicode="&#x201a;" horiz-adv-x="590" d="M106.5 28.5q-57.5 75.5 0 161t197.5 100.5q150 17 201 -73q45 -80 -6 -201q-56 -133 -194 -231q-78 -55 -171 -87l-24 50q102 16 181 96q56 56 53 94q-3 27 -40 24q-140 -9 -197.5 66.5z" />
<glyph unicode="&#x201c;" horiz-adv-x="1184" d="M132 1342q-45 81 7 203q57 134 197 232q77 53 168 85l24 -50q-104 -18 -183 -97q-56 -57 -52 -94q3 -27 41 -25q139 9 196 -66.5t0 -160.5t-196 -101q-151 -16 -202 74zM649 1342q-45 81 6 203q58 134 197 231q77 54 168 86l24 -50q-102 -18 -181 -97q-57 -58 -52 -95 q3 -26 39 -24q139 9 196.5 -66.5t0.5 -160.5t-197 -101q-150 -16 -201 74z" />
<glyph unicode="&#x201d;" horiz-adv-x="1180" d="M134.5 1600q-57.5 75 0 160t197.5 100q150 17 201 -73q45 -80 -6 -201q-56 -133 -194 -231q-78 -55 -171 -87l-24 50q102 18 181 97q57 58 52 95q-3 26 -39 24q-140 -9 -197.5 66zM651 1760q57 85 197 100q150 17 201 -73q45 -80 -6 -201q-56 -133 -194 -231 q-78 -55 -171 -87l-24 50q102 18 181 97q57 58 52 95q-3 26 -39 24q-139 -9 -196.5 66t-0.5 160z" />
<glyph unicode="&#x201e;" horiz-adv-x="1180" d="M134.5 28.5q-57.5 75.5 0 161t197.5 100.5q150 17 201 -73q45 -80 -6 -201q-56 -133 -194 -231q-78 -55 -171 -87l-24 50q102 16 181 96q56 56 53 94q-3 27 -40 24q-140 -9 -197.5 66.5zM651 189.5q57 85.5 197 100.5q150 17 201 -73q45 -80 -6 -201q-56 -133 -194 -231 q-78 -55 -171 -87l-24 50q102 16 181 96q56 56 53 94q-3 27 -40 24q-139 -9 -196.5 66.5t-0.5 161z" />
<glyph unicode="&#x2022;" horiz-adv-x="912" d="M110 986q14 110 117 186q93 68 229 84q191 21 287 -73q74 -72 59 -177q-16 -109 -118 -185q-92 -68 -228 -83q-189 -22 -286 72q-74 72 -60 176z" />
<glyph unicode="&#x2026;" horiz-adv-x="1950" d="M113 150q26 77 116 115q44 19 97 25q132 15 191 -56q46 -56 21 -130q-27 -78 -118 -118q-43 -18 -94 -24q-132 -14 -191 57q-48 57 -22 131zM763 150q26 77 116 115q44 19 97 25q132 15 191 -56q46 -56 21 -130q-27 -78 -118 -118q-42 -18 -94 -24q-132 -14 -191 57 q-48 57 -22 131zM1413 150q26 77 116 115q44 19 97 25q132 15 191 -56q46 -56 21 -130q-27 -78 -118 -118q-42 -18 -94 -24q-132 -14 -191 57q-48 57 -22 131z" />
<glyph unicode="&#x202f;" horiz-adv-x="453" />
<glyph unicode="&#x2039;" horiz-adv-x="582" d="M10 518l468 468l42 -42l-426 -424l426 -426l-42 -42z" />
<glyph unicode="&#x203a;" horiz-adv-x="584" d="M64 94l426 426l-426 424l42 42l468 -466l-468 -468z" />
<glyph unicode="&#x205f;" horiz-adv-x="567" />
<glyph unicode="&#x20ac;" horiz-adv-x="1626" d="M-108 674v70h176q-6 48 -6 150q0 46 12 130h-182v70h196q37 166 125 303.5t208.5 229.5t267.5 142.5t303 50.5q228 0 416 -50l2 -108q-132 86 -276 86q-89 0 -169 -37t-149.5 -112.5t-118.5 -205t-67 -299.5h450v-70h-456q-4 -88 -4 -136q0 -75 6 -144h292v-70h-286 q18 -167 66.5 -294t117.5 -201t149 -110.5t169 -36.5q144 0 276 86l-2 -104q-192 -54 -416 -54q-181 -1 -339.5 55t-273 153.5t-191.5 227t-106 278.5h-190z" />
<glyph unicode="&#x2122;" horiz-adv-x="2468" d="M110 1780h982q-37 -161 -50 -372q-17 58 -54.5 132t-87 135t-86.5 61q-55 0 -74 -136q-63 -467 32 -898h-344q46 204 54 441t-22 457q-19 136 -74 136q-37 0 -86 -60.5t-86 -134t-54 -131.5q-21 236 -50 370zM1128 702q56 247 56 538.5t-56 539.5h342q41 -154 132.5 -328 t205.5 -324l266 652h252q-54 -248 -54 -539.5t54 -538.5h-342q42 196 51.5 419t-15.5 435l-356 -854q-35 130 -151.5 380t-274.5 474q-13 -95 -16 -234q-6 -172 31 -321.5t123 -298.5h-248z" />
<glyph unicode="&#x25fc;" horiz-adv-x="1240" d="M0 0v1240h1240v-1240h-1240z" />
</font>
</defs>
</svg>
